<svg style="display:none" version="1.1" xmlns="http://www.w3.org/2000/svg" xmlns:xlink="http://www.w3.org/1999/xlink">
	<defs>
		<symbol id="ssl" viewBox="-410 1 960 376.6">
			<g id="working-files" display="none"></g><g id="lightgray-noshadow"></g><g id="single-path-blue"></g><g id="single-path"></g><g id="_x33_d-darkgray"></g><g id="_x33_d-lightgray"></g><g id="_x33_d-color">	<g>
			<path fill="#E6E7E8" d="M361.7,1h-583.4C-325.8,1-410,85.3-410,189.3s84.3,188.3,188.3,188.3h583.3
				c104.1,0,188.3-84.3,188.3-188.3S465.7,1,361.7,1z"/>
				<path fill="#D1D3D4" d="M361.7,377.3h-583.4c-103.9,0-188.1-84.1-188.3-187.9h960C549.8,293.2,465.6,377.3,361.7,377.3z"/>
				<g>
					<g><path fill="#005682" d="M19.1,267.2c-0.3-0.3-0.8-0.7-1.5-1.2c-0.8-0.5-1.6-1-2.7-1.4c-1.1-0.5-2.3-0.9-3.5-1.2c-1.4-0.3-2.5-0.5-3.8-0.5c-2.3,0-4.1,0.5-5.2,1.4c-1.1,0.9-1.7,2-1.7,3.6c0,0.9,0.2,1.6,0.7,2.1s1.1,1.1,1.8,1.5c0.8,0.5,1.8,0.9,3,1.2c1.2,0.3,2.7,0.8,4.3,1.2c2,0.6,4.1,1.2,5.7,1.8c1.7,0.6,3.2,1.4,4.3,2.4c1.2,1,2.1,2.1,2.8,3.5c0.7,1.4,1,3,1,5c0,2.3-0.5,4.3-1.4,6c-0.9,1.6-2,2.9-3.5,4.1c-1.4,1-3.2,1.7-5.1,2.1s-4.1,0.7-6.1,0.7c-3.3,0-6.5-0.5-9.6-1.4c-3.2-1-6-2.4-8.6-4.1l3.7-7.2c0.3,0.3,1,0.9,1.9,1.4c1,0.6,2,1.2,3.4,1.7c1.4,0.6,2.7,1.1,4.3,1.5c1.6,0.5,3.3,0.7,4.8,0.7c4.6,0,6.9-1.5,6.9-4.4c0-1-0.2-1.7-0.8-2.4c-0.6-0.7-1.4-1.2-2.3-1.7c-1-0.5-2.1-1-3.6-1.4c-1.4-0.5-2.9-0.9-4.6-1.4c-2-0.6-3.9-1.2-5.4-1.8c-1.5-0.6-2.8-1.4-3.8-2.4c-1-0.9-1.7-1.9-2.3-3.2c-0.6-1.2-0.8-2.7-0.8-4.3c0-2.1,0.5-4.1,1.2-5.9c0.8-1.7,1.9-3.2,3.4-4.2c1.4-1.1,3.2-1.9,5-2.6c1.9-0.6,3.9-0.9,6.2-0.9c3,0,5.9,0.5,8.3,1.4c2.6,1,4.7,2,6.8,3.4L19.1,267.2z"/><path fill="#005682" d="M67.5,291.6v7.3h-30v-43.2h29.4v7.3h-21v10.4h18.2v6.8H45.9v11.3L67.5,291.6L67.5,291.6z"/><path fill="#005682" d="M78.3,277.1c0-2.6,0.5-5.2,1.4-7.8c1-2.6,2.3-4.8,4.1-6.9c1.7-2,3.9-3.7,6.5-4.8c2.6-1.4,5.5-1.8,8.8-1.8c3.9,0,7.1,0.9,9.9,2.6c2.8,1.7,4.8,4.1,6.3,6.8l-6.5,4.4c-0.5-1.2-1.1-2.3-1.8-3c-0.8-0.9-1.6-1.5-2.5-1.9c-0.9-0.5-1.8-0.9-2.8-1.1s-1.9-0.3-2.8-0.3c-1.9,0-3.7,0.5-5.2,1.4c-1.5,0.9-2.7,1.9-3.8,3.4c-1,1.4-1.7,2.9-2.3,4.6c-0.6,1.7-0.8,3.5-0.8,5.1c0,1.9,0.3,3.8,0.9,5.5c0.6,1.7,1.4,3.4,2.5,4.6c1.1,1.4,2.4,2.4,3.9,3.3c1.5,0.8,3.2,1.2,4.8,1.2c1,0,1.8-0.1,2.8-0.3c1-0.2,1.9-0.7,2.8-1.2c0.9-0.6,1.7-1.2,2.5-2c0.8-0.9,1.4-1.8,1.8-3l6.8,3.9c-0.7,1.6-1.6,3-2.8,4.3c-1.2,1.2-2.6,2.3-4.2,3.2c-1.6,0.9-3.3,1.5-5,1.9c-1.7,0.5-3.5,0.7-5.2,0.7c-3,0-5.7-0.7-8.2-1.9c-2.5-1.4-4.6-3-6.5-5.1c-1.8-2-3.3-4.4-4.2-7.1C78.7,282.5,78.3,279.8,78.3,277.1z"/><path fill="#005682" d="M146.4,291.9c1.9,0,3.7-0.5,5-1.2c1.4-0.8,2.5-1.8,3.3-3.2c0.9-1.4,1.4-2.8,1.7-4.4c0.3-1.7,0.6-3.5,0.6-5.2v-22h8.3v21.9c0,2.9-0.3,5.7-1.1,8.3c-0.8,2.6-1.8,4.8-3.4,6.8c-1.5,1.9-3.5,3.5-5.9,4.6c-2.4,1.1-5.2,1.7-8.6,1.7c-3.5,0-6.4-0.7-8.8-1.8c-2.4-1.2-4.3-2.8-5.9-4.7c-1.5-1.9-2.6-4.2-3.3-6.8c-0.7-2.6-1-5.3-1-8.1v-22h8.3v22c0,1.8,0.2,3.6,0.6,5.3s1,3.2,1.7,4.4c0.9,1.4,1.9,2.4,3.3,3.2C142.9,291.4,144.5,291.9,146.4,291.9z"/><path fill="#005682" d="M180.4,299v-43.2h19.1c1.9,0,3.8,0.5,5.5,1.4c1.7,0.9,3.2,1.9,4.3,3.3c1.2,1.4,2.1,2.9,2.8,4.6c0.7,1.7,1.1,3.5,1.1,5.2c0,2.8-0.7,5.3-2,7.6c-1.4,2.3-3.3,3.9-5.6,5l10.1,16.2h-9.5l-9.1-14.5h-8.2V299L180.4,299L180.4,299z M188.8,277.1h10.5c0.8,0,1.5-0.2,2.1-0.6c0.7-0.3,1.4-0.9,1.7-1.5c0.5-0.7,0.9-1.4,1.2-2.1c0.3-0.9,0.5-1.7,0.5-2.7s-0.1-1.9-0.5-2.8c-0.3-0.9-0.8-1.6-1.4-2.1c-0.6-0.7-1.2-1.1-1.8-1.4c-0.8-0.3-1.4-0.6-2.1-0.6h-10.1L188.8,277.1L188.8,277.1z"/><path fill="#005682" d="M257.9,291.6v7.3h-30v-43.2h29.4v7.3h-21v10.4h18.2v6.8h-18.2v11.3L257.9,291.6L257.9,291.6z"/><path fill="#005682" d="M318.3,267.2c-0.3-0.3-0.8-0.7-1.5-1.2c-0.8-0.5-1.6-1-2.7-1.4c-1.1-0.5-2.3-0.9-3.5-1.2c-1.4-0.3-2.5-0.5-3.8-0.5c-2.3,0-4.1,0.5-5.2,1.4c-1.1,0.9-1.7,2-1.7,3.6c0,0.9,0.2,1.6,0.7,2.1s1.1,1.1,1.8,1.5c0.8,0.5,1.8,0.9,3,1.2c1.2,0.3,2.7,0.8,4.3,1.2c2,0.6,4.1,1.2,5.7,1.8c1.7,0.7,3.2,1.4,4.3,2.4s2.1,2.1,2.8,3.5c0.7,1.4,1,3,1,5c0,2.3-0.5,4.3-1.4,6s-2,2.9-3.5,4.1c-1.4,1-3.2,1.7-5.1,2.1s-4.1,0.7-6.1,0.7c-3.3,0-6.5-0.5-9.6-1.4c-3.2-1-6-2.4-8.6-4.1l3.7-7.2c0.3,0.3,1,0.9,1.9,1.4c1,0.6,2,1.2,3.4,1.7c1.4,0.6,2.7,1.1,4.3,1.5c1.6,0.5,3.3,0.7,4.8,0.7c4.6,0,6.9-1.5,6.9-4.4c0-1-0.2-1.7-0.8-2.4c-0.6-0.7-1.4-1.2-2.3-1.7c-1-0.5-2.1-1-3.6-1.4c-1.4-0.5-2.9-0.9-4.6-1.4c-2-0.6-3.9-1.2-5.4-1.8c-1.5-0.7-2.8-1.4-3.8-2.4c-1-0.9-1.7-1.9-2.3-3.2c-0.6-1.2-0.8-2.7-0.8-4.3c0-2.1,0.5-4.1,1.2-5.9c0.8-1.7,1.9-3.2,3.4-4.2s3.2-1.9,5-2.6c1.9-0.6,3.9-0.9,6.2-0.9c3,0,5.9,0.5,8.3,1.4c2.6,1,4.7,2,6.8,3.4L318.3,267.2z"/><path fill="#005682" d="M336.6,299v-43.1h8.3V299H336.6z"/><path fill="#005682" d="M393,263.2h-13.8v35.9h-8.3v-35.9h-13.8v-7.3h36L393,263.2L393,263.2z"/><path fill="#005682" d="M435,291.6v7.3h-29.9v-43.2h29.4v7.3h-21v10.4h18.2v6.8h-18.2v11.3L435,291.6L435,291.6z"/>
				</g>
			</g>
			<g>
				<g><path d="M15.5,227l-26.6-90.3H4.3l13,50.4h0.3l13-50.4h15.6L19.7,227H15.5z"/><path d="M82,227.6c-8.6,0-15.2-4.1-20.3-12.4c-5-8.2-7.4-19.7-7.4-34c0-14.5,2.5-25.8,7.4-34.2c5-8.3,11.7-12.4,20.3-12.4s15.2,4.1,20.3,12.4c5,8.3,7.4,19.7,7.4,34.2c0,14.5-2.5,25.8-7.4,34C97.2,223.3,90.5,227.6,82,227.6z M81.8,149.3c-7.7,0-11.6,10.6-11.6,31.8c0,21.1,4.1,31.7,12,31.7c7.7,0,11.6-10.6,11.6-31.7C93.7,159.9,89.8,149.3,81.8,149.3z"/><path d="M125.1,225.1V92h15.6v133.1H125.1z"/><path d="M209.7,136.7v88.4h-15.6v-9.5h-0.5c-4.1,7.2-9.5,10.9-15.7,10.9c-5.9,0-10.7-2.3-14.4-6.8c-3.7-4.4-5.5-10.7-5.5-18.6v-64.4h15.6v63.2c0,8.3,2.8,12.5,8.3,12.5c3.3,0,6.1-1.5,8.5-4.4c2.4-2.9,3.7-5,3.7-6v-65.4L209.7,136.7L209.7,136.7z"/><path d="M225.8,220.3v-17.1c5.7,6.4,10.9,9.5,15.3,9.5c2.1,0,4.1-0.8,5.5-2.1c1.5-1.4,2.3-3.3,2.3-5.4c0-4.1-2.9-10.4-8.8-19.2c-5.9-8.8-9.5-15.2-11-19.4c-1.5-4.2-2.3-8-2.3-11.5c0-6,1.8-10.9,5.4-14.9c3.6-3.9,8.1-5.9,13.6-5.9c5,0,9.9,1.8,14.9,5.6v14.8c-5.1-4.1-9.5-6.3-13.3-6.3c-4.1,0-6.3,2.1-6.3,6.7c0,3.7,3,9.7,9.1,18.3c6.1,8.5,9.9,14.9,11.6,19.3c1.6,4.3,2.5,8.5,2.5,12.2c0,6.7-2,12.1-6.1,16.3c-4.1,4.3-9.1,6.5-15,6.5C237.5,227.6,231.7,225.1,225.8,220.3z"/><path d="M287.8,119c-2.5,0-4.5-0.9-6.3-2.6c-1.8-1.7-2.6-3.9-2.6-6.3c0-2.5,0.9-4.6,2.6-6.4c1.7-1.7,3.9-2.6,6.3-2.6c2.5,0,4.5,0.9,6.3,2.6c1.7,1.7,2.6,3.9,2.6,6.4c0,2.5-0.9,4.5-2.6,6.3C292.4,118.3,290.2,119,287.8,119z"/><rect x="280" y="136.7" width="15.6" height="88.3"/><path d="M339.5,227.6c-8.6,0-15.2-4.1-20.3-12.4c-5-8.2-7.4-19.7-7.4-34c0-14.5,2.5-25.8,7.4-34.2c5-8.3,11.7-12.4,20.3-12.4s15.2,4.1,20.3,12.4s7.4,19.7,7.4,34.2c0,14.5-2.5,25.8-7.4,34C354.7,223.3,348.1,227.6,339.5,227.6z M339.4,149.3c-7.7,0-11.6,10.6-11.6,31.8c0,21.1,4.1,31.7,12,31.7c7.7,0,11.6-10.6,11.6-31.7C351.3,159.9,347.4,149.3,339.4,149.3z"/><path d="M383.7,225.1v-88.3h15.6v9.5h0.5c4.3-7.3,9.8-11,16.3-11c5.9,0,10.5,2.3,14.1,6.9s5.3,11,5.3,19.3V225h-15.6v-63.2c0-8.6-2.8-12.7-8.3-12.7c-3.2,0-6,1.6-8.5,4.8s-3.8,5.1-3.8,5.7V225L383.7,225.1L383.7,225.1z"/>
			</g>
			<g><path d="M463.3,126.4c6.3,0,11.3,5.1,11.3,11.4c0,6.5-5,11.5-11.3,11.5s-11.3-5-11.3-11.5C451.9,131.4,457.1,126.4,463.3,126.4L463.3,126.4z M463.3,128.2c-5,0-9.1,4.3-9.1,9.6c0,5.4,4.1,9.6,9.2,9.6c5.2,0,9.1-4.2,9.1-9.6C472.5,132.5,468.4,128.2,463.3,128.2L463.3,128.2z M461.2,144.4h-2v-12.7c1.1-0.1,2-0.3,3.6-0.3c1.9,0,3.3,0.5,4.1,1c0.8,0.6,1.2,1.4,1.2,2.6c0,1.6-1.1,2.7-2.5,3.2v0.1c1.1,0.2,1.8,1.2,2.1,3.2c0.3,1.9,0.7,2.7,0.9,3.2h-2.1c-0.3-0.5-0.7-1.6-0.9-3.3c-0.3-1.6-1.1-2.3-2.7-2.3h-1.4L461.2,144.4L461.2,144.4z M461.2,137.4h1.5c1.6,0,3.2-0.7,3.2-2.1c0-1.1-0.9-2.3-3.2-2.3c-0.7,0-1.1,0-1.5,0.1V137.4z"/>
		</g>
	</g>
	<circle fill="#08799C" cx="-221.6" cy="189.4" r="159.1"/>
	<path fill="#005682" d="M-62.4,189.4c0,87.9-71.3,159.1-159.1,159.1s-159.2-71.3-159.2-159.1H-62.4L-62.4,189.4z"/>
	<g>
		<path fill="#E6E7E8" d="M-299.9,165.5c-1.7,1.4-2.6,3.3-2.6,5.6c0,2.3,1.1,4.2,3.2,5.5c2,1.4,6.9,3,14.5,4.8c7.7,1.8,13.4,4.6,17.6,8.5c4.2,3.7,6.3,9.2,6.3,16.3s-2.7,13-8,17.5c-5.4,4.4-12.4,6.8-21.2,6.8c-12.6,0-24-4.6-34.2-14.1l10.6-13c8.7,7.6,16.6,11.4,23.9,11.4c3.3,0,5.9-0.8,7.7-2.1c1.8-1.4,2.8-3.4,2.8-5.7c0-2.4-1-4.3-2.9-5.7c-1.9-1.4-6-2.8-11.8-4.3c-9.4-2.1-16.1-5.1-20.3-8.7c-4.3-3.6-6.5-9.1-6.5-16.7c0-7.6,2.7-13.4,8.1-17.6c5.4-4.1,12.2-6.2,20.3-6.2c5.3,0,10.7,0.9,16,2.7c5.3,1.8,9.9,4.4,14,7.8l-9,13c-6.9-5.3-14.1-7.9-21.4-7.9C-295.8,163.3-298.2,164-299.9,165.5z"/>
		<path fill="#E6E7E8" d="M-227,165.5c-1.7,1.4-2.6,3.3-2.6,5.6c0,2.3,1.1,4.2,3.2,5.5c2,1.4,6.9,3,14.5,4.8s13.4,4.6,17.6,8.5c4.2,3.7,6.3,9.2,6.3,16.3s-2.7,13-8,17.5c-5.4,4.4-12.4,6.8-21.2,6.8c-12.6,0-24-4.6-34.2-14.1l10.6-13c8.7,7.6,16.6,11.4,23.9,11.4c3.3,0,5.9-0.8,7.7-2.1c1.8-1.4,2.8-3.4,2.8-5.7c0-2.4-1-4.3-2.9-5.7c-1.9-1.4-6-2.8-11.8-4.3c-9.4-2.1-16.1-5.1-20.3-8.7c-4.3-3.6-6.5-9.1-6.5-16.7c0-7.6,2.7-13.4,8.1-17.6c5.4-4.1,12.2-6.2,20.3-6.2c5.3,0,10.6,0.9,16,2.7c5.3,1.8,9.9,4.4,14,7.8l-9,13c-6.9-5.3-14.1-7.9-21.4-7.9C-223,163.3-225.2,164-227,165.5z"/>
		<path fill="#E6E7E8" d="M-170.4,229.4v-79.8h17.8v63.9h34v15.9L-170.4,229.4L-170.4,229.4z"/>
	</g>
</g>
</g>
</symbol>
<symbol id="amex-dark" viewBox="0 16.8 100.1 66.4">
	<g>
		<path fill="#4570B7" d="M99.7,76.6c0,3.7-3,6.6-6.6,6.6H6.6c-3.7,0-6.6-3-6.6-6.6V23.4c0-3.7,3-6.6,6.6-6.6H93c3.7,0,6.6,3,6.6,6.6L99.7,76.6L99.7,76.6z"/>
		<path fill="#FFFFFF" d="M9.3,40.5l-1.9-4.7l-1.9,4.7 M51.5,38.7c-0.4,0.2-0.8,0.2-1.4,0.2h-3.4v-2.6h3.5c0.5,0,1,0,1.3,0.2c0.4,0.2,0.6,0.5,0.6,1C52.1,38.1,51.9,38.5,51.5,38.7z M75.8,40.5l-1.9-4.7L72,40.5H75.8z M30.5,45.6h-2.9v-9.2l-4.1,9.2H21l-4-9.2v9.2h-5.7l-1-2.6H4.4l-1.1,2.6h-3l5-11.7h4.2L14.3,45V33.9h4.6l3.7,8l3.4-8h4.7L30.5,45.6L30.5,45.6z M42,45.6h-9.4V33.9H42v2.4h-6.6v2.1h6.4v2.4h-6.4v2.3H42V45.6z M55.2,37c0,1.9-1.2,2.8-2,3.1c0.6,0.2,1.1,0.6,1.4,1c0.4,0.6,0.5,1.1,0.5,2.2v2.3h-2.8v-1.5c0-0.7,0.1-1.7-0.4-2.3c-0.4-0.4-1-0.5-2-0.5h-3v4.3h-2.8V33.9h6.4c1.4,0,2.5,0,3.4,0.6C54.7,34.9,55.2,35.7,55.2,37z M59.7,45.6h-2.9V33.9h2.9V45.6z M92.9,45.6h-4l-5.3-8.8v8.8h-5.7L76.8,43H71l-1.1,2.6h-3.3c-1.4,0-3.1-0.3-4.1-1.3S61,42,61,39.8c0-1.7,0.3-3.3,1.5-4.6c0.9-0.9,2.3-1.4,4.3-1.4h2.7v2.5h-2.7c-1,0-1.6,0.2-2.2,0.7c-0.5,0.5-0.8,1.4-0.8,2.7s0.2,2.2,0.8,2.8c0.4,0.5,1.2,0.6,2,0.6h1.3l4-9.2H76L80.7,45V33.9H85l5,8.1v-8.2h2.9V45.6L92.9,45.6z M0.3,47.9h4.8l1.1-2.6h2.4l1.1,2.6h9.4v-2l0.8,2h4.9l0.8-2v2H49v-4.3h0.5c0.3,0,0.4,0,0.4,0.6v3.7H62v-1c1,0.5,2.5,1,4.5,1h5.1l1.1-2.6h2.4l1.1,2.6H86v-2.5l1.5,2.5h7.9V31.5h-7.8v1.9l-1.1-1.9h-8v1.9l-1-1.9H66.7c-1.8,0-3.4,0.3-4.7,1v-1h-7.4v1c-0.8-0.7-1.9-1-3.2-1H24.2l-1.8,4.2l-1.9-4.2h-8.6v1.9L11,31.5H3.7l-3.4,7.8L0.3,47.9L0.3,47.9z"/>
		<path fill="#FFFFFF" d="M100,56.5h-5.1c-0.5,0-0.8,0-1.1,0.2c-0.3,0.2-0.4,0.5-0.4,0.8c0,0.4,0.2,0.7,0.6,0.9c0.3,0.1,0.6,0.1,1.1,0.1h1.5c1.5,0,2.6,0.3,3.2,0.9c0.1,0.1,0.2,0.2,0.3,0.3 M100,64.3c-0.7,1-2,1.5-3.8,1.5h-5.4v-2.5h5.4c0.5,0,0.9-0.1,1.1-0.3s0.3-0.4,0.3-0.8c0-0.3-0.1-0.6-0.3-0.8c-0.2-0.2-0.5-0.3-1-0.3c-2.6-0.1-5.9,0.1-5.9-3.6c0-1.7,1.1-3.5,4-3.5h5.6v-2.3h-5.2c-1.6,0-2.7,0.4-3.5,1v-1h-7.7c-1.2,0-2.7,0.3-3.3,1v-1H66.6v1c-1.1-0.8-2.9-1-3.8-1h-9v1c-0.9-0.8-2.8-1-4-1H39.7l-2.3,2.5l-2.2-2.5H20.1v16.4h14.8l2.4-2.5l2.2,2.5h9.1v-3.9h0.9c1.2,0,2.6,0,3.9-0.6V68H61v-4.3h0.4c0.5,0,0.5,0,0.5,0.5V68h22.9c1.5,0,3-0.4,3.8-1v1h7.3c1.5,0,3-0.2,4.1-0.8L100,64.3L100,64.3z M88.8,59.6c0.5,0.6,0.8,1.3,0.8,2.5c0,2.5-1.6,3.7-4.4,3.7h-5.5v-2.5h5.4c0.5,0,0.9-0.1,1.1-0.3s0.3-0.4,0.3-0.8c0-0.3-0.1-0.6-0.3-0.8c-0.2-0.2-0.5-0.3-1-0.3c-2.6-0.1-5.9,0.1-5.9-3.6c0-1.7,1.1-3.5,4-3.5h5.6v2.5h-5.1c-0.5,0-0.8,0-1.1,0.2c-0.3,0.2-0.4,0.5-0.4,0.8c0,0.4,0.3,0.7,0.6,0.9c0.3,0.1,0.6,0.1,1.1,0.1h1.5C87.1,58.7,88.2,58.9,88.8,59.6z M63.5,58.9c-0.4,0.2-0.8,0.2-1.4,0.2h-3.4v-2.6h3.5c0.5,0,1,0,1.3,0.2c0.4,0.2,0.6,0.6,0.6,1.1S63.9,58.6,63.5,58.9z M65.2,60.3c0.6,0.2,1.1,0.6,1.4,1c0.4,0.6,0.5,1.1,0.5,2.1v2.3h-2.8v-1.5c0-0.7,0.1-1.8-0.5-2.3c-0.4-0.4-1-0.5-2.1-0.5h-3v4.3h-2.8V54h6.5c1.4,0,2.5,0.1,3.4,0.6s1.4,1.3,1.4,2.6C67.2,59.1,66,60,65.2,60.3z M68.8,54h9.4v2.4h-6.6v2.1H78V61h-6.4v2.3h6.6v2.4h-9.4C68.8,65.7,68.8,54,68.8,54z M49.8,59.5h-3.6v-3h3.7c1,0,1.7,0.4,1.7,1.4C51.6,58.9,50.9,59.5,49.8,59.5z M43.4,64.7l-4.3-4.8l4.3-4.6V64.7z M32.3,63.3h-6.9V61h6.2v-2.4h-6.2v-2.1h7l3.1,3.4L32.3,63.3z M54.6,57.9c0,3.3-2.4,3.9-4.9,3.9h-3.5v3.9h-5.4l-3.5-3.9l-3.6,3.9H22.6V54h11.3l3.4,3.8l3.6-3.8h9C52.1,54,54.6,54.7,54.6,57.9z"/>
	</g>
</symbol>
<symbol id="amex-light" viewBox="0 16.8 100.1 66.4">
	<g>
		<path fill="#eeeeee" d="M99.7,76.6c0,3.7-3,6.6-6.6,6.6H6.6c-3.7,0-6.6-3-6.6-6.6V23.4c0-3.7,3-6.6,6.6-6.6H93c3.7,0,6.6,3,6.6,6.6L99.7,76.6L99.7,76.6z"/>
		<g>
			<g>	<path fill="#4570B7" d="M0.3,47.9h4.8l1.1-2.6h2.4l1.1,2.6h9.4v-2l0.8,2h4.9l0.8-2v2H49v-4.3h0.5c0.3,0,0.4,0,0.4,0.6v3.7H62v-1c1,0.5,2.5,1,4.5,1h5.1l1.1-2.6h2.4l1.1,2.6H86v-2.5l1.5,2.5h7.9V31.5h-7.8v1.9l-1.1-1.9h-8v1.9l-1-1.9H66.7c-1.8,0-3.4,0.3-4.7,1v-1h-7.4v1c-0.8-0.7-1.9-1-3.2-1H24.2l-1.8,4.2l-1.9-4.2h-8.6v1.9L11,31.5H3.7l-3.4,7.8L0.3,47.9L0.3,47.9z M30.5,45.6h-2.9v-9.2l-4.1,9.2H21l-4-9.2v9.2h-5.7l-1-2.6H4.4l-1.1,2.6h-3l5-11.7h4.2L14.3,45V33.9h4.6l3.7,8l3.4-8h4.7L30.5,45.6L30.5,45.6z M42,45.6h-9.4V33.9H42v2.4h-6.6v2.1h6.4v2.4h-6.4v2.3H42V45.6z M55.2,37c0,1.9-1.2,2.8-2,3.1c0.6,0.2,1.1,0.6,1.4,1c0.4,0.6,0.5,1.1,0.5,2.2v2.3h-2.8v-1.5c0-0.7,0.1-1.7-0.4-2.3c-0.4-0.4-1-0.5-2-0.5h-3v4.3h-2.8V33.9h6.4c1.4,0,2.5,0,3.4,0.6C54.7,34.9,55.2,35.7,55.2,37z M59.7,45.6h-2.9V33.9h2.9V45.6z M92.9,45.6h-4l-5.3-8.8v8.8h-5.7L76.8,43H71l-1.1,2.6h-3.3c-1.4,0-3.1-0.3-4.1-1.3S61,42,61,39.8c0-1.7,0.3-3.3,1.5-4.6c0.9-0.9,2.3-1.4,4.3-1.4h2.7v2.5h-2.7c-1,0-1.6,0.2-2.2,0.7c-0.5,0.5-0.8,1.4-0.8,2.7s0.2,2.2,0.8,2.8c0.4,0.5,1.2,0.6,2,0.6h1.3l4-9.2H76L80.7,45V33.9H85l5,8.1v-8.2h2.9V45.6L92.9,45.6z M51.5,38.7c-0.4,0.2-0.8,0.2-1.4,0.2h-3.4v-2.6h3.5c0.5,0,1,0,1.3,0.2c0.4,0.2,0.6,0.5,0.6,1C52.1,38.1,51.9,38.5,51.5,38.7z M75.8,40.5l-1.9-4.7L72,40.5H75.8z M9.3,40.5l-1.9-4.7l-1.9,4.7"/>
			<path fill="#4570B7" d="M100,56.5h-5.1c-0.5,0-0.8,0-1.1,0.2c-0.3,0.2-0.4,0.5-0.4,0.8c0,0.4,0.2,0.7,0.6,0.9c0.3,0.1,0.6,0.1,1.1,0.1h1.5c1.5,0,2.6,0.3,3.2,0.9c0.1,0.1,0.2,0.2,0.3,0.3 M100,64.3c-0.7,1-2,1.5-3.8,1.5h-5.4v-2.5h5.4c0.5,0,0.9-0.1,1.1-0.3s0.3-0.4,0.3-0.8c0-0.3-0.1-0.6-0.3-0.8c-0.2-0.2-0.5-0.3-1-0.3c-2.6-0.1-5.9,0.1-5.9-3.6c0-1.7,1.1-3.5,4-3.5h5.6v-2.3h-5.2c-1.6,0-2.7,0.4-3.5,1v-1h-7.7c-1.2,0-2.7,0.3-3.3,1v-1H66.6v1c-1.1-0.8-2.9-1-3.8-1h-9v1c-0.9-0.8-2.8-1-4-1H39.7l-2.3,2.5l-2.2-2.5H20.1v16.4h14.8l2.4-2.5l2.2,2.5h9.1v-3.9h0.9c1.2,0,2.6,0,3.9-0.6V68H61v-4.3h0.4c0.5,0,0.5,0,0.5,0.5V68h22.9c1.5,0,3-0.4,3.8-1v1h7.3c1.5,0,3-0.2,4.1-0.8L100,64.3L100,64.3z M88.8,59.6c0.5,0.6,0.8,1.3,0.8,2.5c0,2.5-1.6,3.7-4.4,3.7h-5.5v-2.5h5.4c0.5,0,0.9-0.1,1.1-0.3s0.3-0.4,0.3-0.8c0-0.3-0.1-0.6-0.3-0.8c-0.2-0.2-0.5-0.3-1-0.3c-2.6-0.1-5.9,0.1-5.9-3.6c0-1.7,1.1-3.5,4-3.5h5.6v2.5h-5.1c-0.5,0-0.8,0-1.1,0.2c-0.3,0.2-0.4,0.5-0.4,0.8c0,0.4,0.3,0.7,0.6,0.9c0.3,0.1,0.6,0.1,1.1,0.1h1.5C87.1,58.7,88.2,58.9,88.8,59.6z M65.2,60.3c0.6,0.2,1.1,0.6,1.4,1c0.4,0.6,0.5,1.1,0.5,2.1v2.3h-2.8v-1.5c0-0.7,0.1-1.8-0.5-2.3c-0.4-0.4-1-0.5-2.1-0.5h-3v4.3h-2.8V54h6.5c1.4,0,2.5,0.1,3.4,0.6s1.4,1.3,1.4,2.6C67.2,59.1,66,60,65.2,60.3z M68.8,54h9.4v2.4h-6.6v2.1H78V61h-6.4v2.3h6.6v2.4h-9.4C68.8,65.7,68.8,54,68.8,54z M54.6,57.9c0,3.3-2.4,3.9-4.9,3.9h-3.5v3.9h-5.4l-3.5-3.9l-3.6,3.9H22.6V54h11.3l3.4,3.8l3.6-3.8h9C52.1,54,54.6,54.7,54.6,57.9z M49.8,59.5h-3.6v-3h3.7c1,0,1.7,0.4,1.7,1.4C51.6,58.9,50.9,59.5,49.8,59.5z M43.4,64.7l-4.3-4.8l4.3-4.6V64.7z M32.3,63.3h-6.9V61h6.2v-2.4h-6.2v-2.1h7l3.1,3.4L32.3,63.3z M63.5,58.9c-0.4,0.2-0.8,0.2-1.4,0.2h-3.4v-2.6h3.5c0.5,0,1,0,1.3,0.2c0.4,0.2,0.6,0.6,0.6,1.1S63.9,58.6,63.5,58.9z"/>
		</g>
	</g>
</g>
</symbol>
<symbol id="amex-simple-light" viewBox="5 39.6 90 21.6">
	<g>
		<g>
			<g>
				<path fill="#eeeeee" d="M95,39.6H81.5c-0.2,0-0.5,0.1-0.6,0.3c-1,1-2,2-3,3c-0.9-1-1.8-2-2.7-3c-0.2-0.2-0.4-0.3-0.7-0.3H43.7c-0.3,0-0.5,0.1-0.6,0.4l-2.3,5.1c-0.8-1.7-1.6-3.4-2.3-5c-0.2-0.4-0.4-0.5-0.8-0.5H15.5c-0.4,0-0.6,0.1-0.8,0.5L5,61.1h11.6c0.1,0,0.3-0.2,0.4-0.3c0.4-0.9,0.8-1.9,1.2-2.8c0.1-0.1,0.3-0.3,0.5-0.3h2.6c0.3,0,0.5,0.1,0.6,0.4c0.3,0.8,0.7,1.7,1.1,2.5c0.2,0.4,0.4,0.6,0.9,0.6c16.7,0,33.3,0,50,0c0.7,0,1.1-0.2,1.5-0.7c0.8-0.9,1.7-1.9,2.6-2.8c1,1,1.9,2.1,2.8,3.1c0.2,0.2,0.4,0.3,0.7,0.3h13.1c-3.4-3.6-6.8-7.2-10.1-10.7C87.9,46.9,95,39.6,95,39.6z M52,58.1h-3.9V46.3c0,0-3.8,7.8-5.5,11.4c-0.1,0.3-0.3,0.4-0.6,0.4h-2.5c-0.3,0-0.5-0.1-0.6-0.4l-5.5-11.5v11.9H26c-0.4,0-0.6-0.1-0.7-0.5c-0.4-0.9-0.8-1.8-1.2-2.7c-0.1-0.2-0.2-0.3-0.5-0.3c-2.4,0-4.9,0-7.3,0c-0.3,0-0.4,0.1-0.5,0.3c-0.4,0.9-0.8,1.9-1.2,2.8c-0.1,0.1-0.3,0.4-0.4,0.4c-1.3,0-2.6,0-4,0l6.7-15c0.1-0.3,0.3-0.4,0.7-0.4c1.6,0,3.2,0,4.8,0c0.4,0,0.5,0.1,0.7,0.4L29.5,57V42.7h5.9c0.3,0,0.5,0.1,0.6,0.4l4.9,10l4.5-10c0.1-0.1,0.2-0.4,0.4-0.4H52V58.1z M87.4,58.1h-4.2c-0.6,0-0.9-0.2-1.3-0.6c0,0-4.1-4.5-4.2-4.6c0,0-3.7,3.8-4.7,4.9c-0.1,0.1-0.4,0.3-0.6,0.3h-17V42.7h17.2c0.4,0,0.7,0.1,0.9,0.4c1.3,1.5,2.7,3.1,4.1,4.6l4.7-4.8c0.1-0.1,0.3-0.2,0.5-0.2c1.6,0,3.1,0,4.8,0c-2.6,2.6-5,5.2-7.5,7.7C82.6,53,85,55.6,87.4,58.1z M17.4,51.4h5.3L20,45.3L17.4,51.4z M68.4,43.4c0,0.8,0,2.5,0,2.5h-9.2v2.7h9.2v3.2h-9.2v3.1h9.2v2.3c2.3-2.3,4.5-4.6,6.7-6.8C72.9,48.1,70.7,45.7,68.4,43.4C68.4,43.4,68.5,43.4,68.4,43.4z"/>
			</g>
		</g>
	</g>
</symbol>
<symbol id="amex-simple-dark" viewBox="5 39.6 90 21.6">
	<g>
		<g>
			<g>
				<path d="M95,39.6H81.5c-0.2,0-0.5,0.1-0.6,0.3c-1,1-2,2-3,3c-0.9-1-1.8-2-2.7-3c-0.2-0.2-0.4-0.3-0.7-0.3H43.7c-0.3,0-0.5,0.1-0.6,0.4l-2.3,5.1c-0.8-1.7-1.6-3.4-2.3-5c-0.2-0.4-0.4-0.5-0.8-0.5H15.5c-0.4,0-0.6,0.1-0.8,0.5L5,61.1h11.6c0.1,0,0.3-0.2,0.4-0.3c0.4-0.9,0.8-1.9,1.2-2.8c0.1-0.1,0.3-0.3,0.5-0.3h2.6c0.3,0,0.5,0.1,0.6,0.4c0.3,0.8,0.7,1.7,1.1,2.5c0.2,0.4,0.4,0.6,0.9,0.6c16.7,0,33.3,0,50,0c0.7,0,1.1-0.2,1.5-0.7c0.8-0.9,1.7-1.9,2.6-2.8c1,1,1.9,2.1,2.8,3.1c0.2,0.2,0.4,0.3,0.7,0.3h13.1c-3.4-3.6-6.8-7.2-10.1-10.7C87.9,46.9,95,39.6,95,39.6z M52,58.1h-3.9V46.3c0,0-3.8,7.8-5.5,11.4c-0.1,0.3-0.3,0.4-0.6,0.4h-2.5c-0.3,0-0.5-0.1-0.6-0.4l-5.5-11.5v11.9H26c-0.4,0-0.6-0.1-0.7-0.5c-0.4-0.9-0.8-1.8-1.2-2.7c-0.1-0.2-0.2-0.3-0.5-0.3c-2.4,0-4.9,0-7.3,0c-0.3,0-0.4,0.1-0.5,0.3c-0.4,0.9-0.8,1.9-1.2,2.8c-0.1,0.1-0.3,0.4-0.4,0.4c-1.3,0-2.6,0-4,0l6.7-15c0.1-0.3,0.3-0.4,0.7-0.4c1.6,0,3.2,0,4.8,0c0.4,0,0.5,0.1,0.7,0.4L29.5,57V42.7h5.9c0.3,0,0.5,0.1,0.6,0.4l4.9,10l4.5-10c0.1-0.1,0.2-0.4,0.4-0.4H52V58.1z M87.4,58.1h-4.2c-0.6,0-0.9-0.2-1.3-0.6c0,0-4.1-4.5-4.2-4.6c0,0-3.7,3.8-4.7,4.9c-0.1,0.1-0.4,0.3-0.6,0.3h-17V42.7h17.2c0.4,0,0.7,0.1,0.9,0.4c1.3,1.5,2.7,3.1,4.1,4.6l4.7-4.8c0.1-0.1,0.3-0.2,0.5-0.2c1.6,0,3.1,0,4.8,0c-2.6,2.6-5,5.2-7.5,7.7C82.6,53,85,55.6,87.4,58.1z M17.4,51.4h5.3L20,45.3L17.4,51.4z M68.4,43.4c0,0.8,0,2.5,0,2.5h-9.2v2.7h9.2v3.2h-9.2v3.1h9.2v2.3c2.3-2.3,4.5-4.6,6.7-6.8C72.9,48.1,70.7,45.7,68.4,43.4C68.4,43.4,68.5,43.4,68.4,43.4z"/>
			</g>
		</g>
	</g>
</symbol>
<symbol id="discover-dark" viewBox="0 16.6 100.1 66.8">
	<g>
		<path fill="#282828" d="M100,76.7c0,3.7-3,6.7-6.7,6.7H6.7c-3.7,0-6.7-3-6.7-6.7V23.3c0-3.7,3-6.7,6.7-6.7h86.7c3.7,0,6.7,3,6.7,6.7L100,76.7L100,76.7z"/>
		<path fill="#E57E25" d="M93.8,83.3c3.7,0,6.2-2.8,6.2-6.5V57.2c0,0-25.4,18.3-72.6,26.2L93.8,83.3L93.8,83.3z"/>
		<path fill="#FFFFFF" d="M11.1,36.6h-4v14h4c2.1,0,3.6-0.5,5-1.6c1.6-1.3,2.5-3.3,2.5-5.4C18.6,39.4,15.5,36.6,11.1,36.6zM14.3,47.1c-0.9,0.8-2,1.1-3.7,1.1H9.8V39h0.7c1.8,0,2.8,0.3,3.7,1.1s1.5,2.1,1.5,3.5C15.8,44.9,15.2,46.2,14.3,47.1z"/>
		<rect x="19.9" y="36.6" fill="#FFFFFF" width="2.7" height="14"/>
		<path fill="#FFFFFF" d="M29.2,41.9c-1.6-0.6-2.1-1-2.1-1.8c0-0.9,0.9-1.5,2-1.5c0.8,0,1.5,0.3,2.2,1.1l1.4-1.9c-1.2-1-2.6-1.5-4.1-1.5c-2.5,0-4.4,1.7-4.4,4c0,1.9,0.9,2.9,3.4,3.8c1.1,0.4,1.6,0.6,1.9,0.8c0.5,0.4,0.8,0.9,0.8,1.4c0,1.1-0.9,2-2.1,2c-1.3,0-2.3-0.6-3-1.9l-1.8,1.7c1.3,1.8,2.8,2.7,4.8,2.7c2.8,0,4.8-1.9,4.8-4.6C33.3,44.1,32.3,43.1,29.2,41.9z"/>
		<path fill="#FFFFFF" d="M34.1,43.6c0,4.1,3.2,7.3,7.4,7.3c1.2,0,2.2-0.2,3.4-0.8v-3.2c-1.1,1.1-2.1,1.5-3.3,1.5c-2.7,0-4.7-2-4.7-4.8c0-2.7,2-4.8,4.6-4.8c1.3,0,2.3,0.5,3.4,1.6v-3.2c-1.2-0.6-2.2-0.9-3.3-0.9C37.4,36.2,34.1,39.5,34.1,43.6z"/>
		<polygon fill="#FFFFFF" points="66.5,45.9 62.8,36.6 59.8,36.6 65.7,50.9 67.2,50.9 73.2,36.6 70.3,36.6 	"/>
		<polygon fill="#FFFFFF" points="74.4,50.5 82.2,50.5 82.2,48.2 77.2,48.2 77.2,44.4 82,44.4 82,42 77.2,42 77.2,38.9 82.2,38.9 82.2,36.6 74.4,36.6 	"/>
		<path fill="#FFFFFF" d="M93.2,40.7c0-2.6-1.8-4.1-4.9-4.1h-4v14H87V45h0.4l3.8,5.6h3.3l-4.5-6C92,44.2,93.2,42.8,93.2,40.7zM87.7,43h-0.8v-4.2h0.8c1.7,0,2.6,0.7,2.6,2.1C90.4,42.2,89.4,43,87.7,43z"/>
		<g>
			<circle fill="#F29C1F" cx="53.2" cy="43.6" r="7.4"/>
			<circle fill="#E57E25" cx="53.2" cy="43.6" r="7.4"/>
		</g>
	</g>
</symbol>
<symbol id="discover-light" viewBox="0 16.6 100 66.8">
	<g>
		<path fill="#EBEDED" d="M99.9,76.6c0,3.7-3,6.7-6.7,6.7H6.7c-3.7,0-6.7-3-6.7-6.7V23.3c0-3.7,3-6.7,6.7-6.7h86.6
			c3.7,0,6.7,3,6.7,6.7L99.9,76.6L99.9,76.6z"/>
			<path fill="#E57E25" d="M93.4,83.2c3.7,0,6.5-2.6,6.5-6.3V57.2c0,0-25.6,18.1-72.8,26H93.4z"/>
			<path opacity="0.1" fill="#231F20" enable-background="new    " d="M100,57.2c0,0-25.7,18.3-72.9,26.2C83.4,83.4,100,57.2,100,57.2z"/>
			<g>
				<path fill="#231F20" d="M10.7,36.7h-4v13.9h4c2.1,0,3.6-0.5,5-1.6c1.6-1.3,2.5-3.3,2.5-5.4C18.1,39.5,15.1,36.7,10.7,36.7zM13.8,47.1c-0.9,0.8-2,1.1-3.7,1.1H9.4V39h0.7c1.8,0,2.8,0.3,3.7,1.1s1.5,2.1,1.5,3.5C15.3,45,14.8,46.3,13.8,47.1z"/>
				<rect x="19.4" y="36.7" fill="#231F20" width="2.7" height="13.9"/>
				<path fill="#231F20" d="M28.8,42c-1.6-0.6-2.1-1-2.1-1.8c0-0.9,0.9-1.5,2-1.5c0.8,0,1.5,0.3,2.2,1.1l1.4-1.9
					c-1.2-1-2.6-1.5-4.1-1.5c-2.5,0-4.3,1.7-4.3,4c0,1.9,0.9,2.9,3.4,3.8c1.1,0.4,1.6,0.6,1.9,0.8c0.5,0.4,0.8,0.9,0.8,1.4c0,1.1-0.9,2-2.1,2c-1.3,0-2.3-0.6-3-1.9l-1.8,1.7c1.3,1.8,2.8,2.7,4.8,2.7c2.8,0,4.8-1.9,4.8-4.6C32.8,44.2,31.9,43.1,28.8,42z"/>
					<path fill="#231F20" d="M33.6,43.6c0,4.1,3.2,7.3,7.4,7.3c1.2,0,2.2-0.2,3.4-0.8v-3.2c-1.1,1.1-2.1,1.5-3.3,1.5c-2.7,0-4.7-2-4.7-4.8c0-2.7,2-4.8,4.6-4.8c1.3,0,2.3,0.5,3.4,1.6v-3.2c-1.2-0.6-2.2-0.9-3.3-0.9C36.9,36.3,33.6,39.6,33.6,43.6z"/>
					<polygon fill="#231F20" points="66,46 62.3,36.7 59.3,36.7 65.2,51 66.7,51 72.7,36.7 69.8,36.7"/>
					<polygon fill="#231F20" points="73.9,50.6 81.6,50.6 81.6,48.2 76.6,48.2 76.6,44.5 81.5,44.5 81.5,42.1 76.6,42.1 76.6,39 81.6,39 81.6,36.7 73.9,36.7"/>
					<path fill="#231F20" d="M92.4,40.8c0-2.6-1.8-4.1-4.9-4.1h-4v13.9h2.7V45h0.4l3.8,5.6h3.3l-4.4-5.9C91.3,44.3,92.4,42.9,92.4,40.8z M87,43.1h-0.8v-4.2H87c1.7,0,2.6,0.7,2.6,2.1C89.6,42.3,88.7,43.1,87,43.1z"/>
					<circle fill="#E57E25" cx="52.7" cy="43.7" r="7.4"/>
				</g>
			</g>
</symbol>
<symbol id="discover-simple-dark" viewBox="4.4 43.8 90.1 15.4">
	<path d="M8.6,44.2H4.4v14.4h4.1c2.2,0,3.8-0.5,5.2-1.7c1.6-1.4,2.6-3.4,2.6-5.5C16.3,47.2,13.1,44.2,8.6,44.2z M11.8,55c-0.9,0.8-2,1.1-3.9,1.1H7.2v-9.5H8c1.8,0,2.9,0.3,3.9,1.2s1.6,2.2,1.6,3.6C13.4,52.8,12.8,54.1,11.8,55z M17.6,58.6h2.8V44.2h-2.8V58.6z M27.3,49.7c-1.7-0.6-2.2-1-2.2-1.8c0-0.9,0.9-1.6,2.1-1.6c0.8,0,1.5,0.3,2.3,1.2l1.5-1.9c-1.2-1.1-2.7-1.6-4.2-1.6c-2.6,0-4.5,1.8-4.5,4.1c0,2,0.9,3,3.6,3.9c1.1,0.4,1.7,0.6,1.9,0.8c0.6,0.4,0.8,0.9,0.8,1.5c0,1.2-0.9,2-2.2,2c-1.3,0-2.4-0.7-3.1-1.9l-1.8,1.7c1.3,1.9,2.9,2.7,5,2.7c2.9,0,5-1.9,5-4.7C31.5,51.9,30.5,50.9,27.3,49.7z M32.3,51.4c0,4.2,3.3,7.5,7.6,7.5c1.2,0,2.3-0.2,3.5-0.8v-3.3c-1.1,1.1-2.1,1.6-3.4,1.6c-2.8,0-4.8-2.1-4.8-5c0-2.8,2.1-4.9,4.7-4.9c1.3,0,2.4,0.5,3.5,1.6v-3.3c-1.2-0.6-2.3-0.9-3.5-0.9C35.8,43.9,32.3,47.2,32.3,51.4z M65.8,53.9L62,44.2h-3.1L65,59h1.5l6.2-14.8h-3.1L65.8,53.9z M74,58.6h8v-2.4h-5.2v-3.9h5v-2.4h-5v-3.2H82v-2.4h-8V58.6z M89.9,52.5c2.1-0.4,3.3-1.9,3.3-4.1c0-2.7-1.9-4.3-5.1-4.3h-4.2v14.4h2.8v-5.8h0.4l3.9,5.8h3.5L89.9,52.5z M87.5,50.8h-0.8v-4.4h0.9c1.8,0,2.7,0.7,2.7,2.1C90.3,50,89.3,50.8,87.5,50.8z M52.1,43.8c-4.2,0-7.7,3.4-7.7,7.7c0,4.2,3.4,7.7,7.7,7.7c4.2,0,7.7-3.4,7.7-7.7S56.3,43.8,52.1,43.8z M52.2,56.9c-3,0-5.4-2.4-5.4-5.4c0-3,2.4-5.4,5.4-5.4c3,0,5.4,2.4,5.4,5.4C57.6,54.5,55.2,56.9,52.2,56.9z"/>
</symbol>
<symbol id="discover-simple-light" viewBox="4.4 43.8 90.1 15.4">
	<path fill="#eeeeee" d="M8.6,44.2H4.4v14.4h4.1c2.2,0,3.8-0.5,5.2-1.7c1.6-1.4,2.6-3.4,2.6-5.5C16.3,47.2,13.1,44.2,8.6,44.2z M11.8,55c-0.9,0.8-2,1.1-3.9,1.1H7.2v-9.5H8c1.8,0,2.9,0.3,3.9,1.2s1.6,2.2,1.6,3.6C13.4,52.8,12.8,54.1,11.8,55z M17.6,58.6h2.8V44.2h-2.8V58.6z M27.3,49.7c-1.7-0.6-2.2-1-2.2-1.8c0-0.9,0.9-1.6,2.1-1.6c0.8,0,1.5,0.3,2.3,1.2l1.5-1.9c-1.2-1.1-2.7-1.6-4.2-1.6c-2.6,0-4.5,1.8-4.5,4.1c0,2,0.9,3,3.6,3.9c1.1,0.4,1.7,0.6,1.9,0.8c0.6,0.4,0.8,0.9,0.8,1.5c0,1.2-0.9,2-2.2,2c-1.3,0-2.4-0.7-3.1-1.9l-1.8,1.7c1.3,1.9,2.9,2.7,5,2.7c2.9,0,5-1.9,5-4.7C31.5,51.9,30.5,50.9,27.3,49.7z M32.3,51.4c0,4.2,3.3,7.5,7.6,7.5c1.2,0,2.3-0.2,3.5-0.8v-3.3c-1.1,1.1-2.1,1.6-3.4,1.6c-2.8,0-4.8-2.1-4.8-5c0-2.8,2.1-4.9,4.7-4.9c1.3,0,2.4,0.5,3.5,1.6v-3.3c-1.2-0.6-2.3-0.9-3.5-0.9C35.8,43.9,32.3,47.2,32.3,51.4z M65.8,53.9L62,44.2h-3.1L65,59h1.5l6.2-14.8h-3.1L65.8,53.9z M74,58.6h8v-2.4h-5.2v-3.9h5v-2.4h-5v-3.2H82v-2.4h-8V58.6z M89.9,52.5c2.1-0.4,3.3-1.9,3.3-4.1c0-2.7-1.9-4.3-5.1-4.3h-4.2v14.4h2.8v-5.8h0.4l3.9,5.8h3.5L89.9,52.5z M87.5,50.8h-0.8v-4.4h0.9c1.8,0,2.7,0.7,2.7,2.1C90.3,50,89.3,50.8,87.5,50.8z M52.1,43.8c-4.2,0-7.7,3.4-7.7,7.7c0,4.2,3.4,7.7,7.7,7.7c4.2,0,7.7-3.4,7.7-7.7S56.3,43.8,52.1,43.8z M52.2,56.9c-3,0-5.4-2.4-5.4-5.4c0-3,2.4-5.4,5.4-5.4c3,0,5.4,2.4,5.4,5.4C57.6,54.5,55.2,56.9,52.2,56.9z"/>
</symbol>
<symbol id="mc-dark" viewBox="0 16.6 100.1 66.8">
	<g>
		<path fill="#35495E" d="M100,76.7c0,3.7-3,6.7-6.7,6.7H6.7c-3.7,0-6.7-3-6.7-6.7V23.3c0-3.7,3-6.7,6.7-6.7h86.7
			c3.7,0,6.7,3,6.7,6.7L100,76.7L100,76.7z"/>
			<g>
				<circle fill="#E64C3C" cx="37.2" cy="49.9" r="19.5"/>
				<circle fill="#F0C419" cx="63.5" cy="49.9" r="19.5"/>
				<path fill="#F29C1F" d="M44,49.9c0,5.7,2.5,10.9,6.4,14.5c3.9-3.6,6.4-8.7,6.4-14.5S54.3,39,50.4,35.4C46.4,39,44,44.2,44,49.9z"/>
			</g>
			<g>
				<path fill="#FFFFFF" d="M42.1,56.5l0.3-2.4c-0.2,0-0.5,0.1-0.7,0.1c-1,0-1.1-0.5-1-0.9l0.8-4.8H43l0.4-2.6H42l0.3-1.6h-2.8c-0.1,0.1-1.6,9.2-1.6,10.3c0,1.6,0.9,2.4,2.2,2.4C41.1,56.9,41.8,56.6,42.1,56.5z"/>
				<path fill="#FFFFFF" d="M43,52c0,3.9,2.6,4.9,4.8,4.9c2,0,2.9-0.5,2.9-0.5l0.5-2.7c0,0-1.6,0.7-3,0.7c-3,0-2.5-2.2-2.5-2.2h5.7c0,0,0.4-1.8,0.4-2.5c0-1.8-0.9-4.1-4-4.1C45.1,45.6,43,48.6,43,52z M47.9,48.1c1.6,0,1.3,1.8,1.3,1.9h-3.1C46.1,49.8,46.4,48.1,47.9,48.1z"/>
				<path fill="#FFFFFF" d="M65.5,56.5l0.5-3c0,0-1.4,0.7-2.3,0.7c-2,0-2.8-1.5-2.8-3.1c0-3.3,1.7-5.1,3.6-5.1c1.4,0,2.6,0.8,2.6,0.8l0.5-2.9c0,0-1.7-0.7-3.1-0.7c-3.2,0-6.3,2.8-6.3,8c0,3.5,1.7,5.8,5,5.8C64,56.9,65.5,56.5,65.5,56.5z"/>
				<path fill="#FFFFFF" d="M26.8,45.6c-1.9,0-3.4,0.6-3.4,0.6L23,48.6c0,0,1.2-0.5,3-0.5c1,0,1.8,0.1,1.8,1c0,0.5-0.1,0.7-0.1,0.7s-0.8-0.1-1.2-0.1c-2.4,0-4.9,1-4.9,4.1c0,2.4,1.7,3,2.7,3c2,0,2.8-1.3,2.9-1.3l-0.1,1.1h2.5l1.1-7.7C30.6,45.7,27.8,45.6,26.8,45.6z M27.4,51.9c0.1,0.5-0.3,2.7-2,2.7c-0.9,0-1.1-0.7-1.1-1.1c0-0.8,0.4-1.7,2.5-1.7C27.3,51.8,27.3,51.9,27.4,51.9z"/>
				<path fill="#FFFFFF" d="M33.2,56.8c0.6,0,4.2,0.2,4.2-3.5c0-3.5-3.3-2.8-3.3-4.2c0-0.7,0.5-0.9,1.5-0.9c0.4,0,1.9,0.1,1.9,0.1l0.4-2.5c0,0-1-0.2-2.6-0.2c-2.1,0-4.1,0.8-4.1,3.6c0,3.2,3.5,2.9,3.5,4.2c0,0.9-1,1-1.7,1c-1.3,0-2.5-0.4-2.5-0.4l-0.4,2.4C30.2,56.5,30.9,56.8,33.2,56.8z"/>
				<path fill="#FFFFFF" d="M88.6,43.4L88,47.1c0,0-1-1.4-2.7-1.4c-2.5,0-4.7,3.1-4.7,6.6c0,2.3,1.1,4.5,3.5,4.5c1.7,0,2.6-1.2,2.6-1.2l-0.1,1h2.7l2.1-13.2L88.6,43.4z M87.3,50.7c0,1.5-0.7,3.4-2.2,3.4c-1,0-1.5-0.8-1.5-2.2c0-2.2,1-3.6,2.2-3.6C86.8,48.4,87.3,49.1,87.3,50.7z"/>
				<path fill="#FFFFFF" d="M11.8,56.7l1.7-10l0.2,10h1.9l3.6-10l-1.6,10h2.8l2.2-13.3h-4.4l-2.7,8.1l-0.1-8.1h-4.1L9.1,56.7H11.8z"/>
				<path fill="#FFFFFF" d="M54.6,56.7c0.8-4.6,1-8.3,2.9-7.7c0.3-1.8,0.7-2.5,1-3.2c0,0-0.2,0-0.5,0c-1.2,0-2.2,1.7-2.2,1.7l0.2-1.6h-2.6l-1.7,10.8H54.6z"/>
				<g transform="translate(847.0062,0)">
					<path fill="#FFFFFF" d="M-775.1,45.6c-1.9,0-3.4,0.6-3.4,0.6l-0.4,2.4c0,0,1.2-0.5,3-0.5c1,0,1.8,0.1,1.8,1c0,0.5-0.1,0.7-0.1,0.7s-0.8-0.1-1.2-0.1c-2.4,0-4.9,1-4.9,4.1c0,2.4,1.7,3,2.7,3c2,0,2.8-1.3,2.9-1.3l-0.1,1.1c0,0,2.4,0,2.5,0l1.1-7.7C-771.3,45.7-774.1,45.6-775.1,45.6z M-774.5,51.9c0.1,0.5-0.3,2.7-2,2.7c-0.9,0-1.1-0.7-1.1-1.1c0-0.8,0.4-1.7,2.5-1.7	C-774.6,51.8-774.6,51.9-774.5,51.9z"/>
				</g>
				<g transform="translate(442.2857,0)">
					<path fill="#FFFFFF" d="M-364.3,56.7c0.8-4.6,1-8.3,2.9-7.7c0.3-1.8,0.7-2.5,1-3.2c0,0-0.2,0-0.5,0	c-1.2,0-2.2,1.7-2.2,1.7l0.2-1.6h-2.6l-1.7,10.8H-364.3z"/>
				</g>
			</g>
		</g>
	</symbol>
	<symbol id="mc-light" viewBox="0 16.6 100.1 66.8">
		<g>
			<path fill="#719ABF" d="M100,76.7c0,3.7-3,6.7-6.7,6.7H6.7c-3.7,0-6.7-3-6.7-6.7V23.3c0-3.7,3-6.7,6.7-6.7h86.7
				c3.7,0,6.7,3,6.7,6.7L100,76.7L100,76.7z"/>
				<g>
					<circle fill="#E64C3C" cx="37.2" cy="49.9" r="19.5"/>
					<circle fill="#F0C419" cx="63.5" cy="49.9" r="19.5"/>
					<path fill="#F29C1F" d="M44,49.9c0,5.7,2.5,10.9,6.4,14.5c3.9-3.6,6.4-8.7,6.4-14.5S54.3,39,50.4,35.4C46.4,39,44,44.2,44,49.9z"
						/>
					</g>
					<g>
						<path fill="#FFFFFF" d="M42.1,56.5l0.3-2.4c-0.2,0-0.5,0.1-0.7,0.1c-1,0-1.1-0.5-1-0.9l0.8-4.8H43l0.4-2.6H42l0.3-1.6h-2.8c-0.1,0.1-1.6,9.2-1.6,10.3c0,1.6,0.9,2.4,2.2,2.4C41.1,56.9,41.8,56.6,42.1,56.5z"/>
						<path fill="#FFFFFF" d="M43,52c0,3.9,2.6,4.9,4.8,4.9c2,0,2.9-0.5,2.9-0.5l0.5-2.7c0,0-1.6,0.7-3,0.7c-3,0-2.5-2.2-2.5-2.2h5.7c0,0,0.4-1.8,0.4-2.5c0-1.8-0.9-4.1-4-4.1C45.1,45.6,43,48.6,43,52z M47.9,48.1c1.6,0,1.3,1.8,1.3,1.9h-3.1C46.1,49.8,46.4,48.1,47.9,48.1z"/>
						<path fill="#FFFFFF" d="M65.5,56.5l0.5-3c0,0-1.4,0.7-2.3,0.7c-2,0-2.8-1.5-2.8-3.1c0-3.3,1.7-5.1,3.6-5.1c1.4,0,2.6,0.8,2.6,0.8l0.5-2.9c0,0-1.7-0.7-3.1-0.7c-3.2,0-6.3,2.8-6.3,8c0,3.5,1.7,5.8,5,5.8C64,56.9,65.5,56.5,65.5,56.5z"/>
						<path fill="#FFFFFF" d="M26.8,45.6c-1.9,0-3.4,0.6-3.4,0.6L23,48.6c0,0,1.2-0.5,3-0.5c1,0,1.8,0.1,1.8,1c0,0.5-0.1,0.7-0.1,0.7s-0.8-0.1-1.2-0.1c-2.4,0-4.9,1-4.9,4.1c0,2.4,1.7,3,2.7,3c2,0,2.8-1.3,2.9-1.3l-0.1,1.1h2.5l1.1-7.7C30.6,45.7,27.8,45.6,26.8,45.6z M27.4,51.9c0.1,0.5-0.3,2.7-2,2.7c-0.9,0-1.1-0.7-1.1-1.1c0-0.8,0.4-1.7,2.5-1.7C27.3,51.8,27.3,51.9,27.4,51.9z"/>
						<path fill="#FFFFFF" d="M33.2,56.8c0.6,0,4.2,0.2,4.2-3.5c0-3.5-3.3-2.8-3.3-4.2c0-0.7,0.5-0.9,1.5-0.9c0.4,0,1.9,0.1,1.9,0.1l0.4-2.5c0,0-1-0.2-2.6-0.2c-2.1,0-4.1,0.8-4.1,3.6c0,3.2,3.5,2.9,3.5,4.2c0,0.9-1,1-1.7,1c-1.3,0-2.5-0.4-2.5-0.4l-0.4,2.4C30.2,56.5,30.9,56.8,33.2,56.8z"/>
						<path fill="#FFFFFF" d="M88.6,43.4L88,47.1c0,0-1-1.4-2.7-1.4c-2.5,0-4.7,3.1-4.7,6.6c0,2.3,1.1,4.5,3.5,4.5c1.7,0,2.6-1.2,2.6-1.2l-0.1,1h2.7l2.1-13.2L88.6,43.4z M87.3,50.7c0,1.5-0.7,3.4-2.2,3.4c-1,0-1.5-0.8-1.5-2.2c0-2.2,1-3.6,2.2-3.6C86.8,48.4,87.3,49.1,87.3,50.7z"/>
						<path fill="#FFFFFF" d="M11.8,56.7l1.7-10l0.2,10h1.9l3.6-10l-1.6,10h2.8l2.2-13.3h-4.4l-2.7,8.1l-0.1-8.1h-4.1L9.1,56.7H11.8z"/>
						<path fill="#FFFFFF" d="M54.6,56.7c0.8-4.6,1-8.3,2.9-7.7c0.3-1.8,0.7-2.5,1-3.2c0,0-0.2,0-0.5,0c-1.2,0-2.2,1.7-2.2,1.7l0.2-1.6h-2.6l-1.7,10.8H54.6z"/>
						<g transform="translate(847.0062,0)">
							<path fill="#FFFFFF" d="M-775.1,45.6c-1.9,0-3.4,0.6-3.4,0.6l-0.4,2.4c0,0,1.2-0.5,3-0.5c1,0,1.8,0.1,1.8,1	c0,0.5-0.1,0.7-0.1,0.7s-0.8-0.1-1.2-0.1c-2.4,0-4.9,1-4.9,4.1c0,2.4,1.7,3,2.7,3c2,0,2.8-1.3,2.9-1.3l-0.1,1.1c0,0,2.4,0,2.5,0	l1.1-7.7C-771.3,45.7-774.1,45.6-775.1,45.6z M-774.5,51.9c0.1,0.5-0.3,2.7-2,2.7c-0.9,0-1.1-0.7-1.1-1.1c0-0.8,0.4-1.7,2.5-1.7	C-774.6,51.8-774.6,51.9-774.5,51.9z"/>
						</g>
						<g transform="translate(442.2857,0)">
							<path fill="#FFFFFF" d="M-364.3,56.7c0.8-4.6,1-8.3,2.9-7.7c0.3-1.8,0.7-2.5,1-3.2c0,0-0.2,0-0.5,0	c-1.2,0-2.2,1.7-2.2,1.7l0.2-1.6h-2.6l-1.7,10.8H-364.3z"/>
						</g>
					</g>
				</g>
			</symbol>
			<symbol id="mc-simple-dark" viewBox="4.2 43 90.6 15">
				<g>
					<g>
						<g>
							<path fill="#010101" d="M39.9,48.7h1.6l0.4-2.8h-1.5l0.3-1.8h-3.1c-0.1,0.1-1.8,10-1.8,11.2c0,1.8,1,2.6,2.4,2.6c1.1,0,2-0.3,2.3-0.4l0.4-2.6c-0.2,0-0.5,0.1-0.8,0.1c-1.1,0-1.2-0.6-1.1-1L39.9,48.7z M50.9,52.7c0,0,0.4-2,0.4-2.8c0-2-1-4.4-4.4-4.4c-3.1,0-5.4,3.3-5.4,7c0,4.3,2.9,5.3,5.3,5.3c2.2,0,3.2-0.5,3.2-0.5l0.5-2.9c0,0-1.7,0.7-3.3,0.7c-3.3,0-2.7-2.4-2.7-2.4S50.9,52.7,50.9,52.7z M46.9,48.3c1.7,0,1.4,1.9,1.4,2.1H45C45,50.1,45.3,48.3,46.9,48.3z M61.3,51.5c0-3.6,1.9-5.5,4-5.5c1.6,0,2.8,0.9,2.8,0.9l0.5-3.2c0,0-1.9-0.7-3.4-0.7c-3.5,0-7,3-7,8.7c0,3.8,1.9,6.3,5.5,6.3c1,0,2.7-0.4,2.7-0.4l0.5-3.3c0,0-1.5,0.7-2.5,0.7C62.2,54.9,61.3,53.2,61.3,51.5z M23.8,45.6c-2.1,0-3.7,0.7-3.7,0.7l-0.4,2.6c0,0,1.3-0.5,3.3-0.5c1.1,0,2,0.1,2,1c0,0.6-0.1,0.8-0.1,0.8s-0.9-0.1-1.3-0.1c-2.6,0-5.4,1.1-5.4,4.5c0,2.7,1.8,3.3,3,3.3c2.2,0,3.1-1.4,3.1-1.4l-0.1,1.2h2.7l1.2-8.3C28,45.7,24.8,45.6,23.8,45.6z M22.2,55.3c-1,0-1.2-0.7-1.2-1.1c0-0.8,0.5-1.8,2.7-1.8c0.5,0,0.6,0.1,0.7,0.1C24.5,52.9,24.1,55.3,22.2,55.3z M33.5,48.4c0.4,0,2.1,0.1,2.1,0.1l0.4-2.7c0,0-1.1-0.2-2.8-0.2c-2.3,0-4.6,0.9-4.6,4c0,3.5,3.8,3.1,3.8,4.6c0,1-1.1,1.1-1.9,1.1c-1.4,0-2.7-0.5-2.7-0.5l-0.4,2.6c0.1,0,0.9,0.4,3.4,0.4c0.7,0,4.6,0.2,4.6-3.9c0-3.8-3.7-3-3.7-4.5C31.8,48.6,32.4,48.4,33.5,48.4z M91.7,43.2l-0.7,4c0,0-1.2-1.6-3-1.6c-2.8,0-5.1,3.3-5.1,7.2c0,2.5,1.2,4.9,3.8,4.9c1.8,0,2.9-1.3,2.9-1.3l-0.1,1.1h3l2.3-14.4L91.7,43.2z M87.8,54.8c-1.1,0-1.6-0.9-1.6-2.4c0-2.3,1.1-3.9,2.4-3.9c1.1,0,1.7,0.7,1.7,2.5C90.3,52.7,89.5,54.8,87.8,54.8z M14.3,43.2l-3,8.8l-0.2-8.8H6.7L4.2,57.6h3L9,46.7l0.3,10.9h2.1l3.9-10.9l-1.7,10.9h3.1l2.4-14.4C19.1,43.2,14.3,43.2,14.3,43.2z M58.1,45.7c-1.4,0-2.4,1.9-2.4,1.9l0.3-1.7h-2.9l-1.9,11.7h3.1c0.9-5,1.1-9.1,3.2-8.3c0.4-1.9,0.7-2.7,1.1-3.5C58.7,45.8,58.5,45.7,58.1,45.7z M73.4,45.6c-2.1,0-3.7,0.7-3.7,0.7l-0.4,2.6c0,0,1.3-0.5,3.3-0.5c1.1,0,2,0.1,2,1c0,0.6-0.1,0.8-0.1,0.8s-0.9-0.1-1.3-0.1c-2.6,0-5.4,1.1-5.4,4.5c0,2.7,1.8,3.3,3,3.3c2.2,0,3.1-1.4,3.1-1.4l-0.1,1.2h2.7l1.2-8.3C77.6,45.7,74.5,45.6,73.4,45.6z M71.9,55.3c-1,0-1.2-0.7-1.2-1.1c0-0.8,0.5-1.8,2.7-1.8c0.5,0,0.6,0.1,0.7,0.1C74.1,52.9,73.7,55.3,71.9,55.3z M84.4,45.8c0,0-0.2,0-0.6,0c-1.4,0-2.4,1.9-2.4,1.9l0.3-1.7h-2.9l-1.9,11.7H80c0.9-5,1.1-9.1,3.2-8.3C83.6,47.3,84,46.6,84.4,45.8z"/>
						</g>
					</g>
				</g>
			</symbol>
			<symbol id="mc-simple-light" viewBox="4.2 43 90.6 15">
				<g>
					<g>
						<g>
							<path fill="#eeeeee" d="M39.9,48.7h1.6l0.4-2.8h-1.5l0.3-1.8h-3.1c-0.1,0.1-1.8,10-1.8,11.2c0,1.8,1,2.6,2.4,2.6c1.1,0,2-0.3,2.3-0.4l0.4-2.6c-0.2,0-0.5,0.1-0.8,0.1c-1.1,0-1.2-0.6-1.1-1L39.9,48.7z M50.9,52.7c0,0,0.4-2,0.4-2.8c0-2-1-4.4-4.4-4.4c-3.1,0-5.4,3.3-5.4,7c0,4.3,2.9,5.3,5.3,5.3c2.2,0,3.2-0.5,3.2-0.5l0.5-2.9c0,0-1.7,0.7-3.3,0.7c-3.3,0-2.7-2.4-2.7-2.4S50.9,52.7,50.9,52.7z M46.9,48.3c1.7,0,1.4,1.9,1.4,2.1H45C45,50.1,45.3,48.3,46.9,48.3z M61.3,51.5c0-3.6,1.9-5.5,4-5.5c1.6,0,2.8,0.9,2.8,0.9l0.5-3.2c0,0-1.9-0.7-3.4-0.7c-3.5,0-7,3-7,8.7c0,3.8,1.9,6.3,5.5,6.3c1,0,2.7-0.4,2.7-0.4l0.5-3.3c0,0-1.5,0.7-2.5,0.7C62.2,54.9,61.3,53.2,61.3,51.5z M23.8,45.6c-2.1,0-3.7,0.7-3.7,0.7l-0.4,2.6c0,0,1.3-0.5,3.3-0.5c1.1,0,2,0.1,2,1c0,0.6-0.1,0.8-0.1,0.8s-0.9-0.1-1.3-0.1c-2.6,0-5.4,1.1-5.4,4.5c0,2.7,1.8,3.3,3,3.3c2.2,0,3.1-1.4,3.1-1.4l-0.1,1.2h2.7l1.2-8.3C28,45.7,24.8,45.6,23.8,45.6z M22.2,55.3c-1,0-1.2-0.7-1.2-1.1c0-0.8,0.5-1.8,2.7-1.8c0.5,0,0.6,0.1,0.7,0.1C24.5,52.9,24.1,55.3,22.2,55.3z M33.5,48.4c0.4,0,2.1,0.1,2.1,0.1l0.4-2.7c0,0-1.1-0.2-2.8-0.2c-2.3,0-4.6,0.9-4.6,4c0,3.5,3.8,3.1,3.8,4.6c0,1-1.1,1.1-1.9,1.1c-1.4,0-2.7-0.5-2.7-0.5l-0.4,2.6c0.1,0,0.9,0.4,3.4,0.4c0.7,0,4.6,0.2,4.6-3.9c0-3.8-3.7-3-3.7-4.5C31.8,48.6,32.4,48.4,33.5,48.4z M91.7,43.2l-0.7,4c0,0-1.2-1.6-3-1.6c-2.8,0-5.1,3.3-5.1,7.2c0,2.5,1.2,4.9,3.8,4.9c1.8,0,2.9-1.3,2.9-1.3l-0.1,1.1h3l2.3-14.4L91.7,43.2z M87.8,54.8c-1.1,0-1.6-0.9-1.6-2.4c0-2.3,1.1-3.9,2.4-3.9c1.1,0,1.7,0.7,1.7,2.5C90.3,52.7,89.5,54.8,87.8,54.8z M14.3,43.2l-3,8.8l-0.2-8.8H6.7L4.2,57.6h3L9,46.7l0.3,10.9h2.1l3.9-10.9l-1.7,10.9h3.1l2.4-14.4C19.1,43.2,14.3,43.2,14.3,43.2z M58.1,45.7c-1.4,0-2.4,1.9-2.4,1.9l0.3-1.7h-2.9l-1.9,11.7h3.1c0.9-5,1.1-9.1,3.2-8.3c0.4-1.9,0.7-2.7,1.1-3.5C58.7,45.8,58.5,45.7,58.1,45.7z M73.4,45.6c-2.1,0-3.7,0.7-3.7,0.7l-0.4,2.6c0,0,1.3-0.5,3.3-0.5c1.1,0,2,0.1,2,1c0,0.6-0.1,0.8-0.1,0.8s-0.9-0.1-1.3-0.1c-2.6,0-5.4,1.1-5.4,4.5c0,2.7,1.8,3.3,3,3.3c2.2,0,3.1-1.4,3.1-1.4l-0.1,1.2h2.7l1.2-8.3C77.6,45.7,74.5,45.6,73.4,45.6z M71.9,55.3c-1,0-1.2-0.7-1.2-1.1c0-0.8,0.5-1.8,2.7-1.8c0.5,0,0.6,0.1,0.7,0.1C74.1,52.9,73.7,55.3,71.9,55.3z M84.4,45.8c0,0-0.2,0-0.6,0c-1.4,0-2.4,1.9-2.4,1.9l0.3-1.7h-2.9l-1.9,11.7H80c0.9-5,1.1-9.1,3.2-8.3C83.6,47.3,84,46.6,84.4,45.8z"/>
						</g>
					</g>
				</g>
			</symbol>
			<symbol id="paypal-dark" viewBox="0 16.6 100.1 66.8">
				<g>
					<g>
						<path fill="#1D3764" d="M100,76.7c0,3.7-3,6.7-6.7,6.7H6.7c-3.7,0-6.7-3-6.7-6.7V23.3c0-3.7,3-6.7,6.7-6.7h86.7c3.7,0,6.7,3,6.7,6.7L100,76.7L100,76.7z"/>
					</g>
					<g>
						<path fill="#ECF0F1" d="M50.9,42.6c-0.5,0-1.2,0.4-1.6,0.9c0,0-3.6,6.1-3.9,6.7c-0.2,0.3-0.4,0.1-0.4,0s-1.1-6.7-1.1-6.7c-0.1-0.5-0.7-1-1.4-1h-2.2c-0.5,0-0.9,0.4-0.7,0.9c0,0,1.7,9.6,2,11.9c0.2,1.2,0,1.5,0,1.5l-2.2,3.8c-0.3,0.5-0.1,0.9,0.4,0.9h2.6c0.5,0,1.2-0.4,1.6-0.9L53.8,44c0,0,0.9-1.4,0.1-1.4C53.3,42.6,50.9,42.6,50.9,42.6"/>
						<path fill="#ECF0F1" d="M25.1,41c-0.3-0.6-0.8-1.1-1.4-1.5s-1.3-0.6-2.2-0.8c-0.8-0.1-1.8-0.2-2.9-0.2h-5.2c-0.5,0-1.1,0.4-1.2,0.9L8.8,54.7c-0.1,0.5,0.2,0.9,0.8,0.9H12c0.5,0,1.1-0.4,1.2-0.9l0.9-3.7c0.1-0.5,0.6-0.9,1.2-0.9H16c3,0,5.4-0.6,7.1-1.9c1.7-1.2,2.5-2.9,2.5-4.9C25.6,42.4,25.4,41.6,25.1,41z M19.8,46c-0.7,0.5-1.8,0.8-3.1,0.8H16c-0.5,0-0.9-0.4-0.8-0.9l0.7-3.2c0.1-0.5,0.6-0.9,1.2-0.9h0.8c0.9,0,1.7,0.2,2.2,0.5s0.7,0.8,0.7,1.5C20.9,44.7,20.5,45.4,19.8,46z"/>
						<path fill="#ECF0F1" d="M32.7,52.5c-0.3,0.2-0.6,0.4-1,0.5c-0.5,0.2-0.9,0.3-1.3,0.3c-0.6,0-1.1-0.1-1.4-0.3s-0.5-0.5-0.5-0.9c0-0.5,0.1-0.9,0.4-1.2c0.2-0.3,0.6-0.5,1.1-0.7c0.4-0.2,1-0.3,1.6-0.4c0.6-0.1,1.7-0.2,1.8-0.2s0.2-0.1,0.2,0.3c0,0.2-0.4,1.5-0.5,2.1C33,52.2,32.8,52.5,32.7,52.5z M37.1,43.2c-0.9-0.5-2.4-0.8-4.4-0.8c-1,0-2,0.1-3,0.2c-0.7,0.1-0.8,0.1-1.3,0.2c-0.9,0.2-1.1,1.1-1.1,1.1L27,45.3c-0.2,0.8,0.3,0.8,0.5,0.7c0.4-0.1,0.6-0.2,1.5-0.4c0.8-0.2,1.7-0.3,2.3-0.3c1,0,1.7,0.1,2.2,0.3s0.7,0.6,0.7,1.1c0,0.1,0,0.2,0,0.4c0,0.1-0.1,0.2-0.4,0.2c-1.4,0.1-2.4,0.2-3.7,0.4c-1.2,0.2-2.3,0.5-3.1,0.9c-0.9,0.4-1.6,1-2.1,1.7s-0.7,1.6-0.7,2.6s0.3,1.7,1,2.3s1.6,0.9,2.6,0.9c0.7,0,1.2-0.1,1.6-0.1c0.4-0.1,0.8-0.2,1.2-0.4c0.3-0.1,0.7-0.3,1-0.6c0.4-0.2,0.6-0.4,0.9-0.6l0,0l-0.1,0.4l0,0l0,0c-0.1,0.5,0.2,0.9,0.7,0.9l0,0l0,0l0,0c0.3,0,1.4,0,1.9,0h0.4l0,0c0.5-0.1,1-0.5,1.1-0.9l1.8-7.8c0-0.2,0.1-0.4,0.1-0.6c0-0.2,0.1-0.5,0-0.6C38.5,44.6,38,43.7,37.1,43.2"/>
					</g>
					<g>
						<path fill="#FFFFFF" d="M77.7,52.5c-0.3,0.2-0.6,0.4-1,0.5c-0.5,0.2-0.9,0.3-1.3,0.3c-0.6,0-1.1-0.1-1.4-0.3s-0.5-0.5-0.5-0.9c0-0.5,0.1-0.9,0.4-1.2c0.2-0.3,0.6-0.5,1.1-0.7c0.4-0.2,1-0.3,1.6-0.4c0.6-0.1,1.7-0.2,1.8-0.2c0.1,0,0.2-0.1,0.2,0.3c0,0.2-0.4,1.5-0.5,2.1C78.1,52.2,77.8,52.5,77.7,52.5z M82.1,43.2c-0.9-0.5-2.4-0.8-4.4-0.8c-1,0-2,0.1-3,0.2c-0.7,0.1-0.8,0.1-1.3,0.2c-0.9,0.2-1.1,1.1-1.1,1.1L72,45.3c-0.2,0.8,0.3,0.8,0.5,0.7c0.4-0.1,0.6-0.2,1.5-0.4c0.8-0.2,1.7-0.3,2.3-0.3c1,0,1.7,0.1,2.2,0.3s0.8,0.6,0.8,1.1c0,0.1,0,0.2,0,0.4c0,0.1-0.1,0.2-0.4,0.2c-1.4,0.1-2.4,0.2-3.7,0.4c-1.2,0.2-2.3,0.5-3.1,0.9c-0.9,0.4-1.6,1-2.1,1.7s-0.7,1.6-0.7,2.6s0.3,1.7,1,2.3s1.6,0.9,2.6,0.9c0.7,0,1.2-0.1,1.6-0.1c0.4-0.1,0.8-0.2,1.2-0.4c0.3-0.1,0.7-0.3,1-0.6c0.4-0.2,0.6-0.4,0.9-0.6l0,0l-0.1,0.4l0,0l0,0c-0.1,0.5,0.2,0.9,0.7,0.9l0,0l0,0l0,0c0.3,0,1.4,0,1.9,0h0.4l0,0c0.5-0.1,1-0.5,1.1-0.9l1.8-7.8c0-0.2,0.1-0.4,0.1-0.6c0-0.2,0-0.4,0-0.6C83.5,44.6,83,43.7,82.1,43.2"/>
						<path fill="#FFFFFF" d="M70.1,41.1c-0.3-0.6-0.8-1.1-1.4-1.5s-1.3-0.6-2.2-0.8c-0.8-0.1-1.8-0.2-2.9-0.2h-5.2c-0.5,0-1.1,0.4-1.2,0.9l-3.5,15.2c-0.1,0.5,0.2,0.9,0.7,0.9h2.5c0.5,0,1.1-0.4,1.2-0.9l0.8-3.7c0.1-0.5,0.7-0.9,1.2-0.9H61c3,0,5.4-0.6,7.1-1.9c1.7-1.2,2.5-2.9,2.5-4.9C70.6,42.4,70.4,41.7,70.1,41.1 M64.8,46.1c-0.7,0.5-1.8,0.8-3.1,0.8H61c-0.5,0-0.9-0.4-0.8-0.9l0.7-3.2c0.1-0.5,0.7-0.9,1.2-0.9h0.8c1,0,1.7,0.2,2.2,0.5s0.7,0.8,0.7,1.5C65.9,44.7,65.5,45.5,64.8,46.1"/>
						<path fill="#FFFFFF" d="M90.6,38.7h-2.2l0,0l0,0c-0.5,0-1,0.4-1.2,0.9c0,0,0,0,0,0.1c0,0-0.1,0.2-0.1,0.7l-3,13.8C84,54.5,84,54.7,84,54.8l0,0c-0.1,0.5,0.2,0.9,0.7,0.9l0,0H87c0.5,0,1-0.4,1.2-0.9c0,0,0,0,0-0.1l3.3-15l0,0C91.5,39.2,91.2,38.7,90.6,38.7"/>
					</g>
				</g>
			</symbol>
			<symbol id="paypal-light" viewBox="0 16.6 100.1 66.8">
				<g>
					<g>
						<path fill="#ECF0F1" d="M100,76.7c0,3.7-3,6.7-6.7,6.7H6.7c-3.7,0-6.7-3-6.7-6.7V23.3c0-3.7,3-6.7,6.7-6.7h86.7c3.7,0,6.7,3,6.7,6.7L100,76.7L100,76.7z"/>
					</g>
					<g>
						<path fill="#34679A" d="M77.6,52.5c-0.3,0.2-0.6,0.4-1,0.5c-0.5,0.2-0.9,0.3-1.3,0.3c-0.6,0-1.1-0.1-1.4-0.3s-0.5-0.5-0.5-0.9c0-0.5,0.1-0.9,0.4-1.2c0.2-0.3,0.6-0.5,1.1-0.7c0.4-0.2,1-0.3,1.6-0.4c0.6-0.1,1.7-0.2,1.8-0.2c0.1,0,0.2-0.1,0.2,0.3c0,0.2-0.4,1.5-0.5,2.1C77.9,52.2,77.7,52.5,77.6,52.5z M82,43.2c-0.9-0.5-2.4-0.8-4.4-0.8c-1,0-2,0.1-3,0.2c-0.7,0.1-0.8,0.1-1.3,0.2c-0.9,0.2-1.1,1.1-1.1,1.1l-0.3,1.2c-0.2,0.8,0.3,0.8,0.5,0.7c0.4-0.1,0.6-0.2,1.5-0.4c0.8-0.2,1.7-0.3,2.3-0.3c1,0,1.7,0.1,2.2,0.3s0.8,0.6,0.8,1.1c0,0.1,0,0.2,0,0.4c0,0.1-0.1,0.2-0.4,0.2c-1.4,0.1-2.4,0.2-3.7,0.4c-1.2,0.2-2.3,0.5-3.1,0.9c-0.9,0.4-1.6,1-2.1,1.7s-0.7,1.6-0.7,2.6s0.3,1.7,1,2.3s1.6,0.9,2.6,0.9c0.7,0,1.2-0.1,1.6-0.1c0.4-0.1,0.8-0.2,1.2-0.4c0.3-0.1,0.7-0.3,1-0.6c0.4-0.2,0.6-0.4,0.9-0.6l0,0l-0.1,0.4l0,0l0,0c-0.1,0.5,0.2,0.9,0.7,0.9l0,0l0,0l0,0c0.3,0,1.4,0,1.9,0h0.4l0,0c0.5-0.1,1-0.5,1.1-0.9l1.8-7.8c0-0.2,0.1-0.4,0.1-0.6c0-0.2,0-0.4,0-0.6C83.4,44.6,82.9,43.7,82,43.2"/>
						<path fill="#1D3764" d="M50.8,42.6c-0.5,0-1.2,0.4-1.6,0.9c0,0-3.6,6.1-3.9,6.7c-0.2,0.3-0.4,0.1-0.4,0s-1.1-6.7-1.1-6.7c-0.1-0.5-0.7-1-1.4-1h-2.2c-0.5,0-0.9,0.4-0.7,0.9c0,0,1.7,9.6,2,11.9c0.2,1.2,0,1.5,0,1.5l-2.2,3.8c-0.3,0.5-0.1,0.9,0.4,0.9h2.6c0.5,0,1.2-0.4,1.6-0.9L53.7,44c0,0,0.9-1.4,0.1-1.4C53.2,42.6,50.8,42.6,50.8,42.6"/>
						<path fill="#1D3764" d="M25,41c-0.3-0.6-0.8-1.1-1.4-1.5s-1.3-0.6-2.2-0.8c-0.8-0.1-1.8-0.2-2.9-0.2h-5.2c-0.5,0-1.1,0.4-1.2,0.9L8.7,54.7c-0.1,0.5,0.2,0.9,0.8,0.9H12c0.5,0,1.1-0.4,1.2-0.9L14,51c0.1-0.5,0.6-0.9,1.2-0.9h0.7c3,0,5.4-0.6,7.1-1.9c1.7-1.2,2.5-2.9,2.5-4.9C25.5,42.4,25.3,41.6,25,41z M19.6,46c-0.7,0.5-1.8,0.8-3.1,0.8h-0.6c-0.5,0-0.9-0.4-0.8-0.9l0.7-3.2c0.1-0.5,0.6-0.9,1.2-0.9h0.8c0.9,0,1.7,0.2,2.2,0.5s0.7,0.8,0.7,1.5C20.8,44.7,20.4,45.4,19.6,46z"/>
						<path fill="#34679A" d="M70,41.1c-0.3-0.6-0.8-1.1-1.4-1.5s-1.3-0.6-2.2-0.8c-0.8-0.1-1.8-0.2-2.9-0.2h-5.2c-0.5,0-1.1,0.4-1.2,0.9l-3.5,15.2c-0.1,0.5,0.2,0.9,0.7,0.9h2.5c0.5,0,1.1-0.4,1.2-0.9l0.8-3.7c0.1-0.5,0.7-0.9,1.2-0.9h0.7c3,0,5.4-0.6,7.1-1.9c1.7-1.2,2.5-2.9,2.5-4.9C70.5,42.4,70.3,41.7,70,41.1 M64.7,46.1c-0.7,0.5-1.8,0.8-3.1,0.8H61c-0.5,0-0.9-0.4-0.8-0.9l0.7-3.2c0.1-0.5,0.7-0.9,1.2-0.9h0.8c1,0,1.7,0.2,2.2,0.5s0.7,0.8,0.7,1.5C65.8,44.7,65.4,45.5,64.7,46.1"/>
						<path fill="#1D3764" d="M32.6,52.5c-0.3,0.2-0.6,0.4-1,0.5c-0.5,0.2-0.9,0.3-1.3,0.3c-0.6,0-1.1-0.1-1.4-0.3s-0.5-0.5-0.5-0.9c0-0.5,0.1-0.9,0.4-1.2c0.2-0.3,0.6-0.5,1.1-0.7c0.4-0.2,1-0.3,1.6-0.4c0.6-0.1,1.7-0.2,1.8-0.2s0.2-0.1,0.2,0.3c0,0.2-0.4,1.5-0.5,2.1C32.9,52.2,32.7,52.5,32.6,52.5z M37,43.2c-0.9-0.5-2.4-0.8-4.4-0.8c-1,0-2,0.1-3,0.2c-0.7,0.1-0.8,0.1-1.3,0.2c-0.9,0.2-1.1,1.1-1.1,1.1l-0.3,1.2c-0.2,0.8,0.3,0.8,0.5,0.7c0.4-0.1,0.6-0.2,1.5-0.4c0.8-0.2,1.7-0.3,2.3-0.3c1,0,1.7,0.1,2.2,0.3s0.7,0.6,0.7,1.1c0,0.1,0,0.2,0,0.4c0,0.1-0.1,0.2-0.4,0.2c-1.4,0.1-2.4,0.2-3.7,0.4c-1.2,0.2-2.3,0.5-3.1,0.9c-0.9,0.4-1.6,1-2.1,1.7s-0.7,1.6-0.7,2.6s0.3,1.7,1,2.3s1.6,0.9,2.6,0.9c0.7,0,1.2-0.1,1.6-0.1c0.4-0.1,0.8-0.2,1.2-0.4c0.3-0.1,0.7-0.3,1-0.6c0.4-0.2,0.6-0.4,0.9-0.6l0,0l-0.1,0.4l0,0l0,0c-0.1,0.5,0.2,0.9,0.7,0.9l0,0l0,0l0,0c0.3,0,1.4,0,1.9,0h0.4l0,0c0.5-0.1,1-0.5,1.1-0.9l1.8-7.8c0-0.2,0.1-0.4,0.1-0.6c0-0.2,0.1-0.5,0-0.6C38.4,44.6,37.9,43.7,37,43.2"/>
						<path fill="#34679A" d="M90.5,38.7h-2.2l0,0l0,0c-0.5,0-1,0.4-1.2,0.9c0,0,0,0,0,0.1c0,0-0.1,0.2-0.1,0.7l-3,13.8c-0.1,0.3-0.1,0.5-0.1,0.6l0,0c-0.1,0.5,0.2,0.9,0.7,0.9l0,0h2.3c0.5,0,1-0.4,1.2-0.9c0,0,0,0,0-0.1l3.3-15l0,0C91.4,39.2,91.1,38.7,90.5,38.7"/>
					</g>
				</g>
			</symbol>
			<symbol id="paypal-simple-dark" viewBox="5 39.6 90 23.8">
				<g>
					<g>
						<g>
							<path fill="#010101" d="M54.2,43.7c-0.6,0-3.2,0-3.2,0c-0.6,0-1.3,0.4-1.7,1c0,0-3.9,6.3-4.3,6.9c-0.2,0.3-0.4,0.1-0.5,0c0-0.2-1.2-6.8-1.2-6.8c-0.1-0.5-0.7-1-1.5-1h-2.4c-0.6,0-0.9,0.4-0.8,1c0,0,1.8,9.9,2.2,12.2c0.2,1.3,0,1.5,0,1.5l-2.4,3.9c-0.3,0.5-0.2,1,0.4,1h2.8c0.6,0,1.3-0.4,1.7-1l10.8-17.2C54.1,45.2,55.1,43.7,54.2,43.7z M22.8,42.1c-0.3-0.6-0.8-1.1-1.5-1.5s-1.4-0.7-2.3-0.8c-0.9-0.2-2-0.2-3.2-0.2h-5.6c-0.6,0-1.2,0.4-1.3,1L5,56.1c-0.1,0.5,0.2,1,0.8,1h2.7c0.6,0,1.2-0.4,1.3-1l0.9-3.8c0.1-0.5,0.7-1,1.3-1h0.8c3.3,0,5.9-0.6,7.7-1.9c1.8-1.3,2.8-3,2.8-5C23.3,43.5,23.1,42.7,22.8,42.1z M16.9,47.2C16.1,47.8,15,48,13.5,48h-0.7c-0.6,0-1-0.4-0.8-1l0.8-3.3c0.1-0.5,0.7-1,1.3-1H15c1,0,1.8,0.2,2.3,0.5s0.8,0.8,0.8,1.5C18.2,45.9,17.8,46.7,16.9,47.2z M35.8,44.3c-1-0.5-2.6-0.8-4.8-0.8c-1.1,0-2.2,0.1-3.3,0.2c-0.8,0.1-0.9,0.1-1.4,0.2c-1,0.2-1.2,1.2-1.2,1.2l-0.3,1.3c-0.2,0.8,0.3,0.8,0.5,0.7c0.4-0.1,0.7-0.3,1.6-0.5s1.8-0.3,2.5-0.3c1.1,0,1.9,0.1,2.4,0.3c0.5,0.2,0.8,0.6,0.8,1.2c0,0.1,0,0.3,0,0.4c0,0.1-0.1,0.2-0.4,0.2c-1.5,0.1-2.6,0.2-4,0.4c-1.3,0.2-2.5,0.5-3.4,0.9c-1,0.4-1.8,1-2.3,1.7s-0.8,1.6-0.8,2.7c0,1,0.4,1.8,1.1,2.4c0.7,0.6,1.7,0.9,2.8,0.9c0.7,0,1.3-0.1,1.7-0.1c0.4-0.1,0.8-0.2,1.3-0.4c0.3-0.1,0.7-0.3,1.1-0.6c0.4-0.2,0.7-0.4,1-0.6l0,0l-0.1,0.4l0,0l0,0c-0.1,0.5,0.2,0.9,0.7,1l0,0l0,0l0,0c0.3,0,1.5,0,2.1,0H34l0,0c0.5-0.1,1-0.5,1.2-1l2-8c0-0.2,0.1-0.4,0.1-0.7s0.1-0.5,0-0.6C37.3,45.7,36.8,44.9,35.8,44.3z M32,51.2c0,0.2-0.4,1.5-0.5,2.2c0,0.2-0.3,0.5-0.4,0.5c-0.3,0.2-0.7,0.4-1.1,0.5c-0.5,0.2-1,0.3-1.4,0.3c-0.7,0-1.2-0.1-1.5-0.3s-0.5-0.5-0.5-1s0.1-0.9,0.4-1.2s0.7-0.6,1.2-0.7c0.5-0.2,1.1-0.3,1.8-0.4c0.6-0.1,1.8-0.2,2-0.2C32,50.9,32.1,50.8,32,51.2z M84.8,44.4c-1-0.5-2.6-0.8-4.8-0.8c-1.1,0-2.2,0.1-3.3,0.2c-0.8,0.1-0.9,0.1-1.4,0.2c-1,0.2-1.2,1.2-1.2,1.2l-0.3,1.3c-0.2,0.8,0.3,0.8,0.5,0.7c0.4-0.1,0.7-0.3,1.6-0.4c0.9-0.2,1.8-0.3,2.5-0.3c1.1,0,1.9,0.1,2.4,0.3s0.8,0.6,0.8,1.2c0,0.1,0,0.3,0,0.4c0,0.1-0.1,0.2-0.4,0.2c-1.5,0.1-2.7,0.2-4,0.4s-2.5,0.5-3.4,0.9c-1,0.4-1.8,1-2.3,1.7s-0.8,1.6-0.8,2.7c0,1,0.4,1.8,1.1,2.4c0.7,0.6,1.7,0.9,2.8,0.9c0.7,0,1.3-0.1,1.7-0.1c0.4-0.1,0.8-0.2,1.3-0.4c0.3-0.1,0.7-0.3,1.1-0.6c0.4-0.2,0.7-0.4,1-0.6l0,0l-0.1,0.4l0,0l0,0c-0.1,0.5,0.2,0.9,0.7,1l0,0l0,0l0,0c0.3,0,1.5,0,2.1,0h0.4l0,0c0.5-0.1,1-0.5,1.2-1l2-8c0-0.2,0.1-0.4,0.1-0.7s0.1-0.5,0-0.6C86.4,45.7,85.9,44.9,84.8,44.4z M81,51.3c0,0.2-0.4,1.5-0.5,2.2c0,0.2-0.3,0.5-0.4,0.5c-0.3,0.2-0.7,0.4-1.1,0.5c-0.5,0.2-1,0.3-1.4,0.3c-0.7,0-1.2-0.1-1.5-0.3s-0.5-0.5-0.5-1s0.1-0.9,0.4-1.2s0.7-0.6,1.2-0.7c0.5-0.2,1.1-0.3,1.8-0.4c0.6-0.1,1.8-0.2,2-0.2C81,50.9,81.1,50.9,81,51.3z M71.8,42.2c-0.3-0.6-0.8-1.1-1.5-1.5S68.9,40,68,39.9s-2-0.2-3.2-0.2h-5.7c-0.6,0-1.2,0.4-1.3,1L54,56.3c-0.1,0.5,0.2,1,0.8,1h2.7c0.6,0,1.2-0.4,1.3-1l0.9-3.8c0.1-0.5,0.7-1,1.3-1h0.8c3.3,0,5.9-0.6,7.7-1.9c1.8-1.3,2.8-3,2.8-5.1C72.3,43.6,72.2,42.8,71.8,42.2z M66,47.3c-0.8,0.6-1.9,0.8-3.4,0.8h-0.7c-0.6,0-1-0.4-0.8-1l0.8-3.3c0.1-0.5,0.7-1,1.3-1h0.9c1,0,1.8,0.2,2.3,0.5s0.8,0.8,0.8,1.5C67.2,45.9,66.8,46.7,66,47.3z M94.2,39.8h-2.4l0,0l0,0c-0.6,0-1.1,0.4-1.3,0.9c0,0,0,0,0,0.1c0,0-0.1,0.2-0.2,0.7L87,55.6c-0.1,0.3-0.1,0.5-0.1,0.6l0,0c-0.1,0.5,0.2,0.9,0.7,1l0,0h2.5c0.5,0,1.1-0.4,1.3-0.9c0,0,0,0,0-0.1L95,40.7l0,0C95.1,40.2,94.7,39.8,94.2,39.8z"/>
						</g>
					</g>
				</g>
			</symbol>
			<symbol id="paypal-simple-light" viewBox="5 39.6 90 23.8">
				<g>
					<g>
						<g>
							<path fill="#eeeeee" d="M54.2,43.7c-0.6,0-3.2,0-3.2,0c-0.6,0-1.3,0.4-1.7,1c0,0-3.9,6.3-4.3,6.9c-0.2,0.3-0.4,0.1-0.5,0c0-0.2-1.2-6.8-1.2-6.8c-0.1-0.5-0.7-1-1.5-1h-2.4c-0.6,0-0.9,0.4-0.8,1c0,0,1.8,9.9,2.2,12.2c0.2,1.3,0,1.5,0,1.5l-2.4,3.9c-0.3,0.5-0.2,1,0.4,1h2.8c0.6,0,1.3-0.4,1.7-1l10.8-17.2C54.1,45.2,55.1,43.7,54.2,43.7z M22.8,42.1c-0.3-0.6-0.8-1.1-1.5-1.5s-1.4-0.7-2.3-0.8c-0.9-0.2-2-0.2-3.2-0.2h-5.6c-0.6,0-1.2,0.4-1.3,1L5,56.1c-0.1,0.5,0.2,1,0.8,1h2.7c0.6,0,1.2-0.4,1.3-1l0.9-3.8c0.1-0.5,0.7-1,1.3-1h0.8c3.3,0,5.9-0.6,7.7-1.9c1.8-1.3,2.8-3,2.8-5C23.3,43.5,23.1,42.7,22.8,42.1z M16.9,47.2C16.1,47.8,15,48,13.5,48h-0.7c-0.6,0-1-0.4-0.8-1l0.8-3.3c0.1-0.5,0.7-1,1.3-1H15c1,0,1.8,0.2,2.3,0.5s0.8,0.8,0.8,1.5C18.2,45.9,17.8,46.7,16.9,47.2z M35.8,44.3c-1-0.5-2.6-0.8-4.8-0.8c-1.1,0-2.2,0.1-3.3,0.2c-0.8,0.1-0.9,0.1-1.4,0.2c-1,0.2-1.2,1.2-1.2,1.2l-0.3,1.3c-0.2,0.8,0.3,0.8,0.5,0.7c0.4-0.1,0.7-0.3,1.6-0.5s1.8-0.3,2.5-0.3c1.1,0,1.9,0.1,2.4,0.3c0.5,0.2,0.8,0.6,0.8,1.2c0,0.1,0,0.3,0,0.4c0,0.1-0.1,0.2-0.4,0.2c-1.5,0.1-2.6,0.2-4,0.4c-1.3,0.2-2.5,0.5-3.4,0.9c-1,0.4-1.8,1-2.3,1.7s-0.8,1.6-0.8,2.7c0,1,0.4,1.8,1.1,2.4c0.7,0.6,1.7,0.9,2.8,0.9c0.7,0,1.3-0.1,1.7-0.1c0.4-0.1,0.8-0.2,1.3-0.4c0.3-0.1,0.7-0.3,1.1-0.6c0.4-0.2,0.7-0.4,1-0.6l0,0l-0.1,0.4l0,0l0,0c-0.1,0.5,0.2,0.9,0.7,1l0,0l0,0l0,0c0.3,0,1.5,0,2.1,0H34l0,0c0.5-0.1,1-0.5,1.2-1l2-8c0-0.2,0.1-0.4,0.1-0.7s0.1-0.5,0-0.6C37.3,45.7,36.8,44.9,35.8,44.3z M32,51.2c0,0.2-0.4,1.5-0.5,2.2c0,0.2-0.3,0.5-0.4,0.5c-0.3,0.2-0.7,0.4-1.1,0.5c-0.5,0.2-1,0.3-1.4,0.3c-0.7,0-1.2-0.1-1.5-0.3s-0.5-0.5-0.5-1s0.1-0.9,0.4-1.2s0.7-0.6,1.2-0.7c0.5-0.2,1.1-0.3,1.8-0.4c0.6-0.1,1.8-0.2,2-0.2C32,50.9,32.1,50.8,32,51.2z M84.8,44.4c-1-0.5-2.6-0.8-4.8-0.8c-1.1,0-2.2,0.1-3.3,0.2c-0.8,0.1-0.9,0.1-1.4,0.2c-1,0.2-1.2,1.2-1.2,1.2l-0.3,1.3c-0.2,0.8,0.3,0.8,0.5,0.7c0.4-0.1,0.7-0.3,1.6-0.4c0.9-0.2,1.8-0.3,2.5-0.3c1.1,0,1.9,0.1,2.4,0.3s0.8,0.6,0.8,1.2c0,0.1,0,0.3,0,0.4c0,0.1-0.1,0.2-0.4,0.2c-1.5,0.1-2.7,0.2-4,0.4s-2.5,0.5-3.4,0.9c-1,0.4-1.8,1-2.3,1.7s-0.8,1.6-0.8,2.7c0,1,0.4,1.8,1.1,2.4c0.7,0.6,1.7,0.9,2.8,0.9c0.7,0,1.3-0.1,1.7-0.1c0.4-0.1,0.8-0.2,1.3-0.4c0.3-0.1,0.7-0.3,1.1-0.6c0.4-0.2,0.7-0.4,1-0.6l0,0l-0.1,0.4l0,0l0,0c-0.1,0.5,0.2,0.9,0.7,1l0,0l0,0l0,0c0.3,0,1.5,0,2.1,0h0.4l0,0c0.5-0.1,1-0.5,1.2-1l2-8c0-0.2,0.1-0.4,0.1-0.7s0.1-0.5,0-0.6C86.4,45.7,85.9,44.9,84.8,44.4z M81,51.3c0,0.2-0.4,1.5-0.5,2.2c0,0.2-0.3,0.5-0.4,0.5c-0.3,0.2-0.7,0.4-1.1,0.5c-0.5,0.2-1,0.3-1.4,0.3c-0.7,0-1.2-0.1-1.5-0.3s-0.5-0.5-0.5-1s0.1-0.9,0.4-1.2s0.7-0.6,1.2-0.7c0.5-0.2,1.1-0.3,1.8-0.4c0.6-0.1,1.8-0.2,2-0.2C81,50.9,81.1,50.9,81,51.3z M71.8,42.2c-0.3-0.6-0.8-1.1-1.5-1.5S68.9,40,68,39.9s-2-0.2-3.2-0.2h-5.7c-0.6,0-1.2,0.4-1.3,1L54,56.3c-0.1,0.5,0.2,1,0.8,1h2.7c0.6,0,1.2-0.4,1.3-1l0.9-3.8c0.1-0.5,0.7-1,1.3-1h0.8c3.3,0,5.9-0.6,7.7-1.9c1.8-1.3,2.8-3,2.8-5.1C72.3,43.6,72.2,42.8,71.8,42.2z M66,47.3c-0.8,0.6-1.9,0.8-3.4,0.8h-0.7c-0.6,0-1-0.4-0.8-1l0.8-3.3c0.1-0.5,0.7-1,1.3-1h0.9c1,0,1.8,0.2,2.3,0.5s0.8,0.8,0.8,1.5C67.2,45.9,66.8,46.7,66,47.3z M94.2,39.8h-2.4l0,0l0,0c-0.6,0-1.1,0.4-1.3,0.9c0,0,0,0,0,0.1c0,0-0.1,0.2-0.2,0.7L87,55.6c-0.1,0.3-0.1,0.5-0.1,0.6l0,0c-0.1,0.5,0.2,0.9,0.7,1l0,0h2.5c0.5,0,1.1-0.4,1.3-0.9c0,0,0,0,0-0.1L95,40.7l0,0C95.1,40.2,94.7,39.8,94.2,39.8z"/>
						</g>
					</g>
				</g>
			</symbol>
			<symbol id="visa-dark" viewBox="0 16.6 100.1 66.8">
				<g>
					<g>
						<path fill="#0556A3" d="M100,76.7c0,3.7-3,6.7-6.7,6.7H6.7c-3.7,0-6.7-3-6.7-6.7V23.3c0-3.7,3-6.7,6.7-6.7h86.7c3.7,0,6.7,3,6.7,6.7L100,76.7L100,76.7z"/>
					</g>
					<g>
						<polyline fill="#FFFFFF" points="40.2,60.6 43.7,39 49.2,39 45.7,60.6 40.2,60.6"/>
						<path fill="#FFFFFF" d="M65.9,39.6c-1.1-0.4-2.8-0.9-5-0.9c-5.5,0-9.4,2.9-9.4,7.1c0,3.1,2.8,4.8,4.9,5.9c2.2,1.1,2.9,1.7,2.9,2.7c0,1.4-1.7,2.1-3.3,2.1c-2.2,0-3.4-0.3-5.2-1.1L50,54.9l-0.8,4.8c1.3,0.6,3.7,1.1,6.2,1.1c5.8,0,9.6-2.9,9.7-7.4c0-2.5-1.5-4.3-4.7-5.9c-1.9-1-3.1-1.7-3.1-2.7c0-0.9,1-1.9,3.2-1.9c1.8,0,3.1,0.4,4.2,0.8l0.5,0.2L65.9,39.6"/>
						<path fill="#FFFFFF" d="M80.2,39.1h-4.3c-1.3,0-2.3,0.4-2.9,1.8l-8.3,19.7h5.8c0,0,1-2.7,1.2-3.2c0.6,0,6.3,0,7.1,0c0.2,0.8,0.7,3.2,0.7,3.2h5.2L80.2,39.1 M73.3,52.9c0.5-1.2,2.2-6,2.2-6c0,0.1,0.5-1.2,0.7-2.1l0.4,1.9c0,0,1.1,5.1,1.3,6.2C77.1,52.9,74.4,52.9,73.3,52.9z"/>
						<path fill="#FFFFFF" d="M35.5,39.1l-5.4,14.7l-0.6-3c-1-3.4-4.2-7.2-7.7-9l5,18.8h5.9l8.8-21.5H35.5"/>
						<path fill="#F29C1F" d="M25,39h-9v0.5c7,1.8,11.6,6.1,13.5,11.3l-1.9-9.9C27.2,39.5,26.2,39.1,25,39"/>
					</g>
				</g>
			</symbol>
			<symbol id="visa-light" viewBox="0 16.6 100.1 66.8">
				<g>
					<path fill="#EBEDED" d="M100,76.7c0,3.7-3,6.7-6.7,6.7H6.7c-3.7,0-6.7-3-6.7-6.7V23.3c0-3.7,3-6.7,6.7-6.7h86.7
						c3.7,0,6.7,3,6.7,6.7L100,76.7L100,76.7z"/>
						<path fill="#0556A3" d="M93.3,16.7H6.6c-3.7,0-6.6,3-6.6,6.7v4.7h100v-4.7C100,19.7,97,16.7,93.3,16.7z"/>
						<path fill="#F29C1F" d="M93.3,83.3H6.6c-3.7,0-6.6-3-6.6-6.7v-4.7h100v4.7C100,80.4,97,83.3,93.3,83.3z"/>
						<g>
							<polyline fill="#2756A6" points="39.8,60.6 43.3,39 48.9,39 45.4,60.6 39.8,60.6 		"/>
							<path fill="#2756A6" d="M65.6,39.6c-1.1-0.4-2.8-0.9-5-0.9c-5.5,0-9.4,2.9-9.4,7.1c0,3.1,2.8,4.8,4.9,5.9c2.2,1.1,2.9,1.7,2.9,2.7c0,1.4-1.7,2.1-3.3,2.1c-2.2,0-3.4-0.3-5.2-1.1l-0.7-0.3L49,59.9c1.3,0.6,3.7,1.1,6.2,1.1c5.8,0,9.6-2.9,9.7-7.4c0-2.5-1.5-4.3-4.7-5.9c-1.9-1-3.1-1.7-3.1-2.7c0-0.9,1-1.9,3.2-1.9c1.8,0,3.1,0.4,4.2,0.8l0.5,0.2L65.6,39.6"/>
							<path fill="#2756A6" d="M79.8,39.1h-4.3c-1.3,0-2.3,0.4-2.9,1.8l-8.3,19.7h5.8c0,0,1-2.7,1.2-3.2c0.6,0,6.3,0,7.1,0c0.2,0.8,0.7,3.2,0.7,3.2h5.2L79.8,39.1 M73,52.9c0.5-1.2,2.2-6,2.2-6c0,0.1,0.5-1.2,0.7-2.1l0.4,1.9c0,0,1.1,5.1,1.3,6.2C76.7,52.9,74.1,52.9,73,52.9z"/>
							<path fill="#2756A6" d="M35.2,39.1l-5.4,14.7l-0.6-3c-1-3.4-4.2-7.2-7.7-9l5,18.8h5.9l8.8-21.5H35.2"/>
							<path fill="#F29C1F" d="M24.7,39h-9l-0.1,0.4c7,1.8,11.6,6.1,13.5,11.3l-1.9-9.9C26.8,39.5,25.9,39.1,24.7,39"/>
						</g>
					</g>
			</symbol>
			<symbol id="visa-simple-dark" viewBox="3.9 35.7 90 28.6">
				<g>
					<g>
						<g>
							<path fill="#010101" d="M35.6,63.8h7.3l4.6-27.5h-7.3L35.6,63.8z M62.1,47.3C59.6,46,58,45.2,58,43.9c0-1.1,1.3-2.4,4.2-2.4c2.4,0,4.1,0.5,5.5,1.1l0.7,0.3l1-6c-1.4-0.6-3.7-1.2-6.5-1.2c-7.2,0-12.3,3.7-12.3,9.1c0,4,3.6,6.2,6.4,7.5c2.8,1.3,3.8,2.2,3.8,3.4c0,1.8-2.3,2.7-4.4,2.7c-2.9,0-4.5-0.4-6.9-1.4l-0.9-0.4l-1,6.2c1.7,0.8,4.8,1.4,8.1,1.5c7.7,0,12.6-3.7,12.7-9.4C68.2,51.7,66.3,49.3,62.1,47.3z M88,36.3h-5.6c-1.7,0-3.1,0.5-3.8,2.3L67.7,63.8h7.7c0,0,1.2-3.4,1.5-4.1c0.8,0,8.3,0,9.3,0c0.2,1,0.9,4.1,0.9,4.1h6.8L88,36.3z M79,54c0.6-1.6,2.9-7.7,2.9-7.7c0,0.1,0.6-1.6,1-2.6l0.5,2.4c0,0,1.4,6.6,1.7,7.9C85.1,54,79,54,79,54z M29.5,36.3l-7.1,18.8l-0.8-3.8L19,38.6c-0.4-1.7-1.7-2.3-3.3-2.3H4l-0.1,0.6c2.9,0.7,5.4,1.7,7.7,3L18,63.8h7.7l11.5-27.5H29.5z"/>
						</g>
					</g>
				</g>
			</symbol>
			<symbol id="visa-simple-light" viewBox="3.9 35.7 90 28.6">
				<g>
					<g>
						<g>
							<path fill="#eeeeee" d="M35.6,63.8h7.3l4.6-27.5h-7.3L35.6,63.8z M62.1,47.3C59.6,46,58,45.2,58,43.9c0-1.1,1.3-2.4,4.2-2.4c2.4,0,4.1,0.5,5.5,1.1l0.7,0.3l1-6c-1.4-0.6-3.7-1.2-6.5-1.2c-7.2,0-12.3,3.7-12.3,9.1c0,4,3.6,6.2,6.4,7.5c2.8,1.3,3.8,2.2,3.8,3.4c0,1.8-2.3,2.7-4.4,2.7c-2.9,0-4.5-0.4-6.9-1.4l-0.9-0.4l-1,6.2c1.7,0.8,4.8,1.4,8.1,1.5c7.7,0,12.6-3.7,12.7-9.4C68.2,51.7,66.3,49.3,62.1,47.3z M88,36.3h-5.6c-1.7,0-3.1,0.5-3.8,2.3L67.7,63.8h7.7c0,0,1.2-3.4,1.5-4.1c0.8,0,8.3,0,9.3,0c0.2,1,0.9,4.1,0.9,4.1h6.8L88,36.3z M79,54c0.6-1.6,2.9-7.7,2.9-7.7c0,0.1,0.6-1.6,1-2.6l0.5,2.4c0,0,1.4,6.6,1.7,7.9C85.1,54,79,54,79,54z M29.5,36.3l-7.1,18.8l-0.8-3.8L19,38.6c-0.4-1.7-1.7-2.3-3.3-2.3H4l-0.1,0.6c2.9,0.7,5.4,1.7,7.7,3L18,63.8h7.7l11.5-27.5H29.5z"/>
						</g>
					</g>
				</g>
			</symbol>
			<symbol id="facebook-circle-punched" viewBox="0 0 1024 1024">
				<title>facebook-circle-punched</title>
				<path class="path1" d="M512.834 180c88.68 0 172.052 34.534 234.76 97.24 62.708 62.708 97.24 146.080 97.24 234.76s-34.534 172.052-97.24 234.76c-62.708 62.706-146.080 97.24-234.76 97.24s-172.052-34.536-234.76-97.24c-62.708-62.708-97.24-146.080-97.24-234.76s34.534-172.052 97.24-234.76c62.708-62.706 146.080-97.24 234.76-97.24zM512.834 100c-227.542 0-412 184.458-412 412s184.458 412 412 412 412-184.458 412-412-184.458-412-412-412v0zM456.222 436.266h-47.034v76.772h47.034v225.528h90.44v-226.486h63.102l6.716-75.814h-69.818c0 0 0-28.31 0-43.186 0-17.876 3.602-24.954 20.876-24.954 13.914 0 48.942 0 48.942 0v-78.694c0 0-51.594 0-62.618 0-67.298 0-97.64 29.628-97.64 86.372 0 49.424 0 60.462 0 60.462z"></path>
			</symbol>
			<symbol id="facebook-circle" viewBox="0 0 1024 1024">
				<title>facebook-circle</title>
				<path class="path1" d="M512 0c-282.624 0-512 229.376-512 512s229.376 512 512 512 512-229.376 512-512-229.376-512-512-512zM663.552 301.056c0 0-51.2 0-71.68 0-25.6 0-30.72 10.24-30.72 36.864 0 21.504 0 63.488 0 63.488h102.4l-10.24 110.592h-92.16v330.752h-132.096v-329.728h-68.608v-112.64h68.608c0 0 0-16.384 0-88.064 0-82.944 44.032-125.952 142.336-125.952 16.384 0 91.136 0 91.136 0l1.024 114.688z"></path>
			</symbol>
			<symbol id="facebook-simple" viewBox="0 0 1024 1024">
				<title>facebook-simple</title>
				<path class="path1" d="M396.288 352.256h-96.256v157.696h96.256v462.848h185.344v-464.896h129.024l13.312-155.648h-143.36c0 0 0-58.368 0-89.088 0-36.864 7.168-51.2 43.008-51.2 28.672 0 100.352 0 100.352 0v-160.768c0 0-105.472 0-128 0-138.24 0-200.704 60.416-200.704 177.152 1.024 101.376 1.024 123.904 1.024 123.904z"></path>
			</symbol>
			<symbol id="facebook-square" viewBox="0 0 1024 1024">
				<title>facebook-square</title>
				<path class="path1" d="M0 0v1024h1024v-1024h-1024zM679.936 275.456c0 0-57.344 0-79.872 0-27.648 0-33.792 11.264-33.792 40.96 0 24.576 0 70.656 0 70.656h113.664l-11.264 122.88h-102.4v367.616h-146.432v-367.616h-76.8v-123.904h76.8c0 0 0-18.432 0-98.304 0-92.16 49.152-140.288 158.72-140.288 17.408 0 101.376 0 101.376 0v128z"></path>
			</symbol>
			<symbol id="gplus-circle-punched" viewBox="0 0 1024 1024">
				<title>gplus-circle-punched</title>
				<path class="path1" d="M512.834 182c88.68 0 172.052 34.534 234.76 97.24 62.708 62.708 97.24 146.080 97.24 234.76s-34.534 172.052-97.24 234.76c-62.708 62.706-146.080 97.24-234.76 97.24s-172.052-34.536-234.76-97.24c-62.708-62.708-97.24-146.080-97.24-234.76s34.534-172.052 97.24-234.76c62.708-62.706 146.080-97.24 234.76-97.24zM512.834 102c-227.542 0-412 184.458-412 412s184.458 412 412 412 412-184.458 412-412-184.458-412-412-412v0zM524.256 562.042c-38.55-28.114-47.97-43.996-11.174-72.446 20.732-16.032 35.264-37.4 35.264-63.786 0-28.744-11.756-54.822-33.856-67.486h31.326l26.67-27.992c0 0-100.536 0-119.344 0-74.502 0-111.034 44.656-111.034 93.776 0 50.2 34.438 89.736 101.686 89.736-10.426 21.048-6.238 40.49 10.82 54.39-114.852 0-139.43 50.396-139.43 89.218 0 50.302 57.82 80.208 127.156 80.208 94.802 0 132.486-50.242 132.486-91.516 0.002-33.64-12.558-55.62-50.57-84.102zM386.99 423.366c-5.556-42.25 16.016-74.576 48.18-73.618 32.154 0.966 59.672 35.622 65.222 77.86 5.546 42.246-12.958 69.432-45.112 68.474-32.168-0.968-62.738-30.476-68.29-72.716zM442.682 715.304c-47.926 0-82.534-30.336-82.534-66.782 0-35.71 40.612-66.522 88.534-65.994 53.172 0 84.866 33.116 84.866 67.858-0.002 36.446-29.598 64.918-90.866 64.918zM730.48 390.9v27.53h-55.060v55.060h-27.528v-55.060h-55.058v-27.53h55.058v-55.058h27.528v55.058h55.060z"></path>
			</symbol>
			<symbol id="gplus-circle" viewBox="0 0 1024 1024">
				<title>gplus-circle</title>
				<path class="path1" d="M553.984 697.344c0 50.176-40.96 90.112-125.952 90.112-66.56 0-113.664-41.984-113.664-92.16 0-49.152 56.32-92.16 121.856-91.136 73.728 0 117.76 45.056 117.76 93.184zM1024 512c0 282.624-229.376 512-512 512s-512-229.376-512-512 229.376-512 512-512 512 229.376 512 512zM611.328 691.2c0-46.080-17.408-76.8-69.632-115.712-53.248-38.912-66.56-60.416-15.36-100.352 28.672-22.528 49.152-51.2 49.152-88.064 0-39.936-16.384-75.776-47.104-93.184h43.008l36.864-38.912c0 0-139.264 0-164.864 0-102.4 0-153.6 61.44-153.6 129.024 0 69.632 47.104 123.904 140.288 123.904-14.336 28.672-8.192 56.32 15.36 74.752-158.72 0-192.512 69.632-192.512 122.88 0 69.632 79.872 110.592 175.104 110.592 131.072 2.048 183.296-67.584 183.296-124.928zM826.368 338.944h-75.776v-75.776h-37.888v75.776h-75.776v37.888h75.776v75.776h37.888v-75.776h75.776v-37.888zM507.904 390.144c-7.168-58.368-46.080-106.496-90.112-107.52s-73.728 43.008-66.56 101.376c7.168 58.368 50.176 99.328 94.208 100.352 45.056 1.024 70.656-35.84 62.464-94.208z"></path>
			</symbol>
			<symbol id="gplus-simple" viewBox="0 0 1024 1024">
				<title>gplus-simple</title>
				<path class="path1" d="M982.016 250.88h-124.928v124.928h-62.464v-124.928h-123.904v-62.464h124.928v-124.928h62.464v124.928h124.928v62.464zM629.76 765.952c0 93.184-84.992 206.848-300.032 206.848-156.672 0-287.744-67.584-287.744-181.248 0-88.064 55.296-201.728 315.392-201.728-38.912-31.744-48.128-75.776-24.576-122.88-152.576 0-230.4-89.088-230.4-202.752 1.024-111.616 82.944-212.992 251.904-212.992 43.008 0 270.336 0 270.336 0l-60.416 63.488h-70.656c50.176 28.672 76.8 88.064 76.8 152.576 0 59.392-32.768 108.544-79.872 144.384-82.944 64.512-61.44 100.352 25.6 163.84 84.992 64.512 113.664 113.664 113.664 190.464zM460.8 271.36c-12.288-95.232-74.752-174.080-147.456-176.128s-120.832 70.656-108.544 166.912c12.288 95.232 81.92 162.816 154.624 164.864 72.704 1.024 114.688-60.416 101.376-155.648zM536.576 775.168c0-78.848-71.68-153.6-192.512-153.6-108.544-1.024-199.68 68.608-199.68 149.504 0 82.944 77.824 151.552 186.368 151.552 138.24 0 205.824-64.512 205.824-147.456z"></path>
			</symbol>
			<symbol id="gplus-square" viewBox="0 0 1024 1024">
				<title>gplus-square</title>
				<path class="path1" d="M532.48 724.992c0 62.464-51.2 111.616-156.672 111.616-82.944 0-142.336-52.224-142.336-115.712 0-61.44 69.632-114.688 152.576-113.664 92.16 1.024 146.432 58.368 146.432 117.76zM1024 0v1024h-1024v-1024h1024zM604.16 717.824c0-58.368-21.504-96.256-87.040-145.408-66.56-48.128-82.944-75.776-19.456-124.928 35.84-27.648 60.416-64.512 60.416-110.592 0-49.152-20.48-94.208-58.368-116.736h54.272l46.080-48.128c0 0-173.056 0-205.824 0-129.024 0-191.488 76.8-191.488 161.792 0 87.040 59.392 154.624 175.104 154.624-18.432 35.84-11.264 69.632 18.432 94.208-198.656 0-240.64 87.040-240.64 153.6 0 87.040 99.328 138.24 219.136 138.24 164.864 1.024 229.376-84.992 229.376-156.672zM872.448 277.504h-94.208v-95.232h-47.104v95.232h-96.256v47.104h95.232v95.232h48.128v-95.232h95.232l-1.024-47.104zM476.16 340.992c-9.216-72.704-57.344-133.12-112.64-134.144-55.296-2.048-93.184 54.272-82.944 126.976 9.216 72.704 62.464 123.904 117.76 125.952 55.296 1.024 87.040-46.080 77.824-118.784z"></path>
			</symbol>
			<symbol id="instagram-simple-circle-punched" viewBox="0 0 1024 1024">
				<title>instagram-simple-circle-punched</title>
				<path class="path1" d="M512 180c88.68 0 172.052 34.536 234.76 97.24 62.706 62.708 97.24 146.080 97.24 234.76s-34.534 172.052-97.24 234.76c-62.708 62.704-146.080 97.24-234.76 97.24s-172.052-34.536-234.76-97.24c-62.706-62.708-97.24-146.080-97.24-234.76s34.534-172.052 97.24-234.76c62.708-62.704 146.080-97.24 234.76-97.24zM512 100c-227.542 0-412 184.458-412 412s184.458 412 412 412 412-184.458 412-412-184.458-412-412-412v0zM665.138 481.76h-34.208c2.492 9.676 3.962 19.784 3.962 30.23 0 66.784-54.124 120.906-120.892 120.906-66.766 0-120.892-54.124-120.892-120.906 0-10.448 1.478-20.554 3.97-30.23h-34.208v166.248c0 8.338 6.768 15.098 15.126 15.098h272.014c8.358 0 15.128-6.76 15.128-15.098v-166.248zM665.138 375.982c0-8.344-6.772-15.114-15.128-15.114h-45.328c-8.35 0-15.112 6.77-15.112 15.114v45.342c0 8.34 6.762 15.114 15.112 15.114h45.328c8.358 0 15.128-6.774 15.128-15.114v-45.342zM514 436.438c-41.734 0-75.562 33.818-75.562 75.552 0 41.73 33.828 75.574 75.562 75.574s75.57-33.844 75.57-75.574c0-41.734-33.836-75.552-75.57-75.552zM665.138 708.46h-302.268c-25.032 0-45.33-20.302-45.33-45.356v-302.234c0-25.040 20.298-45.33 45.33-45.33h302.27c25.036 0 45.324 20.292 45.324 45.33v302.236c-0.002 25.052-20.29 45.354-45.326 45.354z"></path>
			</symbol>
			<symbol id="instagram-circle-punched" viewBox="0 0 1024 1024">
				<title>instagram-circle-punched</title>
				<path class="path1" d="M512 180c88.68 0 172.052 34.534 234.76 97.24 62.706 62.708 97.24 146.080 97.24 234.76s-34.534 172.052-97.24 234.76c-62.708 62.704-146.080 97.24-234.76 97.24s-172.052-34.536-234.76-97.24c-62.706-62.708-97.24-146.080-97.24-234.76s34.534-172.052 97.24-234.76c62.708-62.706 146.080-97.24 234.76-97.24zM512 100c-227.542 0-412 184.458-412 412s184.458 412 412 412 412-184.458 412-412-184.458-412-412-412v0zM597.876 455.444h115.046v176.614c0 43.022-34.874 77.896-77.892 77.896h-238.056c-43.022 0-77.898-34.876-77.898-77.896v-176.614h114.536c-11.724 16.47-18.642 36.6-18.642 58.356 0 55.658 45.12 100.774 100.778 100.774 55.654 0 100.774-45.118 100.774-100.774-0.002-21.758-6.924-41.886-18.646-58.356zM712.922 391.946v51.158h-125.382c-18.28-18.56-43.69-30.080-71.792-30.080-28.11 0-53.518 11.518-71.796 30.080h-124.874v-51.158c0-26.256 13.006-49.458 32.908-63.57v83.876h15.97v-92.594c3.624-1.458 7.378-2.644 11.248-3.546v96.142h15.972v-98.158c0.6-0.014 1.194-0.044 1.798-0.044h9.224v98.202h15.968v-98.202h212.862c43.020-0.002 77.894 34.872 77.894 77.894zM677.322 359.116c0-6.9-5.598-12.494-12.498-12.494h-42.108c-6.902 0-12.494 5.594-12.494 12.494v43.036c0 6.9 5.592 12.494 12.494 12.494h42.108c6.9 0 12.498-5.594 12.498-12.494v-43.036zM438.108 513.8c0-23.242 10.282-44.116 26.514-58.356 5.696-4.994 12.122-9.166 19.1-12.34 9.772-4.444 20.608-6.94 32.026-6.94 11.416 0 22.25 2.496 32.024 6.94 6.978 3.174 13.402 7.346 19.098 12.34 16.234 14.242 26.514 35.114 26.514 58.356 0 42.81-34.826 77.638-77.634 77.638-42.814 0-77.642-34.828-77.642-77.638zM458.622 513.8c0 31.688 25.69 57.38 57.378 57.38 31.692 0 57.378-25.692 57.378-57.38 0-31.692-25.688-57.38-57.378-57.38s-57.378 25.688-57.378 57.38z"></path>
			</symbol>
			<symbol id="instagram-circle" viewBox="0 0 1024 1024">
				<title>instagram-circle</title>
				<path class="path1" d="M755.712 288.768v62.464c0 10.24-8.192 18.432-18.432 18.432h-61.44c-10.24 0-18.432-8.192-18.432-18.432v-62.464c0-10.24 8.192-18.432 18.432-18.432h61.44c10.24 0 18.432 8.192 18.432 18.432zM519.168 598.016c46.080 0 83.968-37.888 83.968-83.968s-37.888-83.968-83.968-83.968-83.968 37.888-83.968 83.968c0 47.104 37.888 83.968 83.968 83.968zM1024 512c0 282.624-229.376 512-512 512s-512-229.376-512-512 229.376-512 512-512 512 229.376 512 512zM806.912 429.056h-167.936c17.408 24.576 27.648 53.248 27.648 84.992 0 80.896-65.536 147.456-147.456 147.456-80.896 0-147.456-65.536-147.456-147.456 0-31.744 10.24-61.44 27.648-84.992h-167.936v258.048c0 62.464 51.2 113.664 113.664 113.664h348.16c62.464 0 113.664-51.2 113.664-113.664v-258.048zM519.168 627.712c62.464 0 113.664-51.2 113.664-113.664 0-33.792-15.36-64.512-38.912-84.992-8.192-7.168-17.408-13.312-27.648-18.432-14.336-6.144-29.696-10.24-47.104-10.24-16.384 0-32.768 4.096-47.104 10.24-10.24 5.12-19.456 10.24-27.648 18.432-23.552 20.48-38.912 51.2-38.912 84.992 0 63.488 51.2 113.664 113.664 113.664zM806.912 336.896c0-62.464-51.2-113.664-113.664-113.664h-311.296v143.36h-23.552v-143.36h-13.312c-1.024 0-2.048 0-3.072 0v143.36h-23.552v-141.312c-6.144 1.024-11.264 3.072-16.384 5.12v135.168h-23.552v-122.88c-28.672 20.48-48.128 54.272-48.128 93.184v74.752h182.272c26.624-26.624 63.488-44.032 105.472-44.032 40.96 0 77.824 16.384 105.472 44.032h183.296v-73.728z"></path>
			</symbol>
			<symbol id="instagram" viewBox="0 0 1024 1024">
				<title>instagram</title>
				<path class="path1" d="M723.968 365.568h297.984v456.704c0 111.616-90.112 201.728-201.728 201.728h-616.448c-110.592 0-200.704-90.112-200.704-201.728v-456.704h295.936c-30.72 43.008-48.128 94.208-48.128 150.528 0 144.384 116.736 261.12 261.12 261.12s261.12-116.736 261.12-261.12c-1.024-55.296-19.456-107.52-49.152-150.528zM1020.928 201.728v132.096h-323.584c-47.104-48.128-113.664-77.824-186.368-77.824s-138.24 29.696-185.344 77.824h-322.56v-132.096c0-68.608 32.768-128 84.992-164.864v217.088h40.96v-239.616c9.216-4.096 19.456-7.168 28.672-9.216v248.832h40.96v-253.952c2.048 0 3.072 0 5.12 0h23.552v253.952h40.96v-253.952h550.912c111.616 0 201.728 90.112 201.728 201.728zM928.768 116.736c0-17.408-14.336-32.768-32.768-32.768h-107.52c-17.408 0-32.768 14.336-32.768 32.768v111.616c0 17.408 14.336 32.768 32.768 32.768h108.544c17.408 0 32.768-14.336 32.768-32.768l-1.024-111.616zM310.272 517.12c0-60.416 26.624-113.664 68.608-150.528 14.336-13.312 31.744-23.552 49.152-31.744 25.6-11.264 53.248-18.432 82.944-18.432s57.344 6.144 82.944 18.432c18.432 8.192 34.816 19.456 49.152 31.744 41.984 36.864 68.608 91.136 68.608 150.528 0 110.592-90.112 200.704-200.704 200.704s-200.704-90.112-200.704-200.704zM363.52 517.12c0 81.92 66.56 148.48 148.48 148.48s148.48-66.56 148.48-148.48c0-82.944-66.56-148.48-148.48-148.48s-148.48 65.536-148.48 148.48z"></path>
			</symbol>
			<symbol id="instagram-simple-circle" viewBox="0 0 1024 1024">
				<title>instagram-simple-circle</title>
				<path class="path1" d="M404.48 512c0-61.44 49.152-110.592 110.592-110.592 60.416 0 109.568 49.152 109.568 110.592s-49.152 110.592-110.592 110.592c-60.416 0-109.568-49.152-109.568-110.592zM691.2 512c0 97.28-78.848 177.152-177.152 177.152-97.28 0-176.128-79.872-176.128-177.152 0-15.36 2.048-29.696 6.144-44.032h-50.176v242.688c0 12.288 10.24 22.528 22.528 22.528h397.312c12.288 0 22.528-10.24 22.528-22.528v-242.688h-50.176c3.072 14.336 5.12 28.672 5.12 44.032zM713.728 290.816h-66.56c-12.288 0-22.528 10.24-22.528 22.528v66.56c0 12.288 10.24 22.528 22.528 22.528h66.56c12.288 0 22.528-10.24 22.528-22.528v-66.56c-1.024-12.288-10.24-22.528-22.528-22.528zM1024 512c0 282.624-229.376 512-512 512s-512-229.376-512-512 229.376-512 512-512 512 229.376 512 512zM801.792 290.816c0-36.864-29.696-66.56-66.56-66.56h-441.344c-36.864 0-66.56 29.696-66.56 66.56v442.368c0 36.864 29.696 66.56 66.56 66.56h442.368c36.864 0 66.56-29.696 66.56-66.56l-1.024-442.368z"></path>
			</symbol>
			<symbol id="instagram-simple" viewBox="0 0 1024 1024">
				<title>instagram-simple</title>
				<path class="path1" d="M906.24 433.152h-89.088c6.144 25.6 10.24 51.2 10.24 78.848 0 174.080-141.312 315.392-315.392 315.392s-315.392-141.312-315.392-315.392c0-27.648 4.096-53.248 10.24-78.848h-89.088v433.152c0 21.504 17.408 38.912 38.912 38.912h708.608c21.504 0 39.936-17.408 39.936-38.912l1.024-433.152zM906.24 157.696c0-21.504-17.408-38.912-39.936-38.912h-117.76c-21.504 0-38.912 17.408-38.912 38.912v117.76c0 21.504 17.408 38.912 38.912 38.912h117.76c21.504 0 39.936-17.408 39.936-38.912v-117.76zM512 315.392c-108.544 0-196.608 88.064-196.608 196.608s88.064 196.608 196.608 196.608c108.544 0 196.608-88.064 196.608-196.608s-88.064-196.608-196.608-196.608zM906.24 1024h-788.48c-64.512 0-117.76-53.248-117.76-117.76v-788.48c0-64.512 53.248-117.76 117.76-117.76h787.456c65.536 0 118.784 53.248 118.784 117.76v787.456c0 65.536-53.248 118.784-117.76 118.784z"></path>
			</symbol>
			<symbol id="instagram-simple-square" viewBox="0 0 1024 1024">
				<title>instagram-simple-square</title>
				<path class="path1" d="M712.704 459.776h58.368v285.696c0 14.336-11.264 25.6-25.6 25.6h-466.944c-14.336 0-25.6-11.264-25.6-25.6v-285.696h58.368c-4.096 16.384-7.168 33.792-7.168 52.224 0 114.688 93.184 207.872 207.872 207.872s207.872-93.184 207.872-207.872c0-18.432-2.048-35.84-7.168-52.224zM512 642.048c71.68 0 130.048-58.368 130.048-130.048s-58.368-130.048-130.048-130.048c-71.68 0-130.048 58.368-130.048 130.048s58.368 130.048 130.048 130.048zM745.472 251.904h-77.824c-14.336 0-25.6 11.264-25.6 25.6v77.824c0 14.336 11.264 25.6 25.6 25.6h77.824c14.336 0 25.6-11.264 25.6-25.6v-77.824c1.024-13.312-11.264-25.6-25.6-25.6zM1024 0v1024h-1024v-1024h1024zM849.92 251.904c0-43.008-34.816-77.824-77.824-77.824h-520.192c-43.008 0-77.824 34.816-77.824 77.824v520.192c0 43.008 34.816 77.824 77.824 77.824h520.192c43.008 0 77.824-34.816 77.824-77.824v-520.192z"></path>
			</symbol>
			<symbol id="instagram-square" viewBox="0 0 1024 1024">
				<title>instagram-square</title>
				<path class="path1" d="M789.504 248.832v73.728c0 12.288-9.216 21.504-21.504 21.504h-72.704c-12.288 0-21.504-9.216-21.504-21.504v-73.728c0-12.288 9.216-21.504 21.504-21.504h72.704c12.288 0 21.504 10.24 21.504 21.504zM512 613.376c54.272 0 98.304-44.032 98.304-98.304s-44.032-98.304-98.304-98.304c-54.272 0-98.304 44.032-98.304 98.304s44.032 98.304 98.304 98.304zM1024 0v1024h-1024v-1024h1024zM850.944 414.72h-197.632c20.48 28.672 31.744 62.464 31.744 100.352 0 95.232-77.824 173.056-173.056 173.056s-173.056-77.824-173.056-173.056c0-37.888 12.288-71.68 31.744-100.352h-197.632v304.128c0 73.728 60.416 134.144 134.144 134.144h409.6c73.728 0 134.144-60.416 134.144-134.144v-304.128zM512 648.192c73.728 0 133.12-59.392 133.12-133.12 0-39.936-17.408-75.776-46.080-100.352-10.24-8.192-20.48-15.36-32.768-21.504-16.384-7.168-35.84-12.288-55.296-12.288s-37.888 4.096-55.296 12.288c-12.288 5.12-23.552 12.288-32.768 21.504-27.648 24.576-46.080 60.416-46.080 100.352 1.024 73.728 61.44 133.12 135.168 133.12zM850.944 305.152c0-73.728-60.416-134.144-134.144-134.144h-366.592v168.96h-27.648v-167.936h-15.36c-1.024 0-2.048 0-3.072 0v168.96h-27.648v-165.888c-6.144 2.048-13.312 4.096-19.456 6.144v159.744h-27.648v-144.384c-33.792 24.576-56.32 64.512-56.32 109.568v88.064h215.040c31.744-31.744 74.752-52.224 123.904-52.224 48.128 0 92.16 19.456 123.904 52.224h216.064l-1.024-89.088z"></path>
			</symbol>
			<symbol id="pinterest-circle-punched" viewBox="0 0 1024 1024">
				<title>pinterest-circle-punched</title>
				<path class="path1" d="M512.834 180c88.68 0 172.052 34.534 234.76 97.24 62.708 62.708 97.24 146.080 97.24 234.76s-34.534 172.052-97.24 234.76c-62.708 62.706-146.080 97.24-234.76 97.24s-172.052-34.536-234.76-97.24c-62.708-62.708-97.24-146.080-97.24-234.76s34.534-172.052 97.24-234.76c62.708-62.706 146.080-97.24 234.76-97.24zM512.834 100c-227.542 0-412 184.458-412 412s184.458 412 412 412 412-184.458 412-412-184.458-412-412-412v0zM529.782 298.396c-127.5 0-191.79 91.416-191.79 167.644 0 46.156 17.474 87.218 54.954 102.524 6.146 2.512 11.654 0.088 13.434-6.716 1.242-4.71 4.176-16.594 5.482-21.538 1.798-6.732 1.104-9.092-3.858-14.958-10.806-12.748-17.712-29.252-17.712-52.626 0-67.822 50.74-128.532 132.126-128.532 72.062 0 111.658 44.036 111.658 102.842 0 77.376-34.244 142.686-85.080 142.686-28.076 0-49.090-23.218-42.356-51.696 8.068-33.998 23.696-70.686 23.696-95.226 0-21.966-11.794-40.288-36.196-40.288-28.702 0-51.756 29.69-51.756 69.46 0 25.33 8.56 42.466 8.56 42.466s-29.37 124.44-34.516 146.232c-10.256 43.402-1.546 96.61-0.804 101.98 0.43 3.184 4.522 3.942 6.374 1.538 2.648-3.456 36.832-45.656 48.45-87.82 3.292-11.94 18.88-73.768 18.88-73.768 9.322 17.786 36.574 33.454 65.548 33.454 86.272 0 144.8-78.648 144.8-183.92 0.002-79.604-67.422-153.738-169.894-153.738z"></path>
			</symbol>
			<symbol id="pinterest-circle" viewBox="0 0 1024 1024">
				<title>pinterest-circle</title>
				<path class="path1" d="M512 0c-282.624 0-512 229.376-512 512s229.376 512 512 512 512-229.376 512-512-229.376-512-512-512zM579.584 680.96c-39.936 0-77.824-21.504-90.112-46.080 0 0-21.504 84.992-25.6 101.376-16.384 58.368-63.488 116.736-66.56 120.832-2.048 3.072-8.192 2.048-9.216-2.048-1.024-7.168-13.312-80.896 1.024-141.312 7.168-29.696 48.128-201.728 48.128-201.728s-12.288-23.552-12.288-58.368c0-55.296 31.744-96.256 71.68-96.256 33.792 0 50.176 25.6 50.176 55.296 0 33.792-21.504 84.992-32.768 131.072-9.216 38.912 19.456 71.68 58.368 71.68 70.656 0 117.76-90.112 117.76-196.608 0-80.896-54.272-142.336-154.624-142.336-112.64 0-182.272 83.968-182.272 177.152 0 32.768 9.216 55.296 24.576 72.704 7.168 8.192 8.192 11.264 5.12 20.48-2.048 7.168-6.144 23.552-7.168 29.696-2.048 9.216-10.24 12.288-18.432 9.216-52.224-21.504-75.776-77.824-75.776-141.312 0-105.472 89.088-231.424 265.216-231.424 141.312 0 234.496 102.4 234.496 211.968-2.048 147.456-82.944 256-201.728 256z"></path>
			</symbol>
			<symbol id="pinterest-simple" viewBox="0 0 1024 1024">
				<title>pinterest-simple</title>
				<path class="path1" d="M533.504 51.2c-251.904 0-377.856 180.224-377.856 330.752 0 91.136 34.816 172.032 108.544 201.728 12.288 5.12 22.528 0 26.624-13.312 2.048-9.216 8.192-32.768 11.264-41.984 3.072-13.312 2.048-18.432-7.168-29.696-21.504-25.6-34.816-57.344-34.816-103.424 0-134.144 100.352-253.952 261.12-253.952 142.336 0 220.16 87.040 220.16 202.752 0 152.576-67.584 281.6-167.936 281.6-55.296 0-97.28-46.080-83.968-102.4 16.384-66.56 47.104-139.264 47.104-187.392 0-43.008-23.552-79.872-71.68-79.872-56.32 0-102.4 58.368-102.4 137.216 0 50.176 16.384 83.968 16.384 83.968s-58.368 245.76-67.584 288.768c-20.48 86.016-3.072 190.464-2.048 200.704 1.024 6.144 9.216 8.192 12.288 3.072 5.12-7.168 72.704-90.112 95.232-173.056 6.144-23.552 36.864-145.408 36.864-145.408 18.432 34.816 71.68 65.536 129.024 65.536 169.984 0 285.696-155.648 285.696-362.496 0-156.672-133.12-303.104-334.848-303.104z"></path>
			</symbol>
			<symbol id="pinterest-square" viewBox="0 0 1024 1024">
				<title>pinterest-square</title>
				<path class="path1" d="M0 0v1024h1024v-1024h-1024zM577.536 686.080c-44.032 0-86.016-23.552-100.352-51.2 0 0-23.552 95.232-28.672 113.664-17.408 64.512-70.656 129.024-74.752 135.168-3.072 4.096-9.216 2.048-10.24-2.048-1.024-8.192-14.336-90.112 1.024-156.672 8.192-33.792 53.248-224.256 53.248-224.256s-13.312-26.624-13.312-65.536c0-61.44 35.84-106.496 79.872-106.496 37.888 0 55.296 27.648 55.296 61.44 0 37.888-23.552 94.208-36.864 146.432-10.24 44.032 21.504 78.848 64.512 78.848 77.824 0 130.048-100.352 130.048-219.136 0-90.112-60.416-157.696-171.008-157.696-124.928 0-202.752 93.184-202.752 197.632 0 35.84 10.24 61.44 27.648 80.896 7.168 9.216 8.192 12.288 6.144 22.528-2.048 7.168-6.144 25.6-8.192 32.768-3.072 10.24-11.264 14.336-20.48 10.24-57.344-23.552-83.968-86.016-83.968-157.696 0-116.736 98.304-257.024 293.888-257.024 157.696 0 261.12 113.664 261.12 235.52 0 162.816-90.112 282.624-222.208 282.624z"></path>
			</symbol>
			<symbol id="tumblr-circle-punched" viewBox="0 0 1024 1024">
				<title>tumblr-circle-punched</title>
				<path class="path1" d="M512.834 180c88.68 0 172.052 34.534 234.76 97.24 62.708 62.708 97.24 146.080 97.24 234.76s-34.534 172.052-97.24 234.76c-62.708 62.706-146.080 97.24-234.76 97.24s-172.052-34.536-234.76-97.24c-62.708-62.708-97.24-146.080-97.24-234.76s34.534-172.052 97.24-234.76c62.708-62.706 146.080-97.24 234.76-97.24zM512.834 100c-227.542 0-412 184.458-412 412s184.458 412 412 412 412-184.458 412-412-184.458-412-412-412v0zM470.342 294.076c-2.828 22.872-7.99 41.694-15.484 56.498-7.49 14.812-17.428 27.484-29.82 38.046-12.386 10.556-27.26 18.67-44.636 24.326v63.236h48.606v155.544c0 20.27 2.118 35.732 6.374 46.4 4.242 10.674 11.876 20.752 22.882 30.23 10.994 9.478 24.29 16.772 39.882 21.892 15.58 5.112 33.504 7.674 53.78 7.674 17.862 0 34.482-1.792 49.85-5.374 15.36-3.592 32.53-9.836 51.492-18.762v-69.798c-22.238 14.612-44.592 21.92-67.050 21.92-12.644 0-23.878-2.94-33.688-8.84-7.41-4.348-12.484-10.186-15.21-17.492-2.728-7.304-4.084-23.828-4.084-49.556v-113.84h105.396v-69.678h-105.396v-112.428h-62.894z"></path>
			</symbol>
			<symbol id="tumblr-circle" viewBox="0 0 1024 1024">
				<title>tumblr-circle</title>
				<path class="path1" d="M512 0c-282.624 0-512 229.376-512 512s229.376 512 512 512 512-229.376 512-512-229.376-512-512-512zM710.656 790.528c-26.624 12.288-50.176 20.48-70.656 25.6-21.504 5.12-44.032 7.168-68.608 7.168-27.648 0-53.248-3.072-74.752-10.24s-39.936-17.408-55.296-30.72c-15.36-13.312-25.6-26.624-31.744-41.984-6.144-14.336-9.216-35.84-9.216-64.512v-215.040h-67.584v-87.040c23.552-8.192 44.032-19.456 61.44-33.792s30.72-31.744 40.96-52.224c10.24-20.48 17.408-46.080 21.504-77.824h87.040v155.648h145.408v96.256h-144.384v157.696c0 35.84 2.048 58.368 6.144 68.608s11.264 18.432 21.504 24.576c13.312 8.192 28.672 12.288 46.080 12.288 30.72 0 61.44-10.24 92.16-30.72v96.256z"></path>
			</symbol>
			<symbol id="tumblr-simple" viewBox="0 0 1024 1024">
				<title>tumblr-simple</title>
				<path class="path1" d="M415.744 51.2c-6.144 47.104-16.384 87.040-32.768 117.76-15.36 30.72-35.84 57.344-61.44 78.848s-56.32 38.912-93.184 50.176v131.072h101.376v322.56c0 41.984 4.096 73.728 13.312 96.256s24.576 43.008 47.104 62.464c22.528 19.456 50.176 34.816 82.944 45.056s69.632 16.384 111.616 16.384c36.864 0 71.68-4.096 103.424-11.264s67.584-20.48 106.496-38.912v-143.36c-46.080 30.72-92.16 45.056-139.264 45.056-26.624 0-49.152-6.144-69.632-18.432-15.36-9.216-25.6-21.504-31.744-35.84-6.144-15.36-8.192-49.152-8.192-102.4v-237.568h219.136v-144.384h-219.136v-233.472h-130.048z"></path>
			</symbol>
			<symbol id="tumblr-square" viewBox="0 0 1024 1024">
				<title>tumblr-square</title>
				<path class="path1" d="M0 0v1024h1024v-1024h-1024zM732.16 831.488c-30.72 14.336-58.368 24.576-82.944 30.72s-51.2 8.192-80.896 8.192c-32.768 0-61.44-4.096-87.040-12.288s-47.104-20.48-64.512-35.84c-17.408-15.36-29.696-31.744-36.864-49.152s-10.24-41.984-10.24-74.752v-250.88h-78.848v-102.4c27.648-9.216 52.224-22.528 71.68-38.912 20.48-17.408 35.84-37.888 48.128-61.44s20.48-54.272 24.576-91.136h101.376v181.248h169.984v112.64h-167.936v184.32c0 41.984 2.048 68.608 6.144 79.872 4.096 12.288 12.288 21.504 24.576 28.672 15.36 9.216 33.792 14.336 54.272 14.336 35.84 0 72.704-12.288 108.544-35.84v112.64z"></path>
			</symbol>
			<symbol id="twitter-circle-punched" viewBox="0 0 1024 1024">
				<title>twitter-circle-punched</title>
				<path class="path1" d="M512 180c183.484 0 332 148.488 332 332 0 183.482-148.49 332-332 332-183.486 0-332-148.49-332-332 0-183.482 148.488-332 332-332zM512 100c-227.542 0-412 184.458-412 412s184.458 412 412 412 412-184.458 412-412-184.458-412-412-412v0zM737.594 403.994c-15.424 6.84-31.998 11.464-49.394 13.542 17.752-10.644 31.392-27.496 37.812-47.58-16.622 9.856-35.024 17.012-54.614 20.87-15.686-16.714-38.040-27.158-62.774-27.158-55.512 0-96.32 51.804-83.778 105.6-71.472-3.586-134.846-37.826-177.26-89.856-22.53 38.646-11.688 89.22 26.616 114.818-14.098-0.446-27.364-4.316-38.956-10.758-0.932 39.844 27.622 77.104 68.978 85.416-12.104 3.292-25.362 4.046-38.838 1.47 10.944 34.168 42.708 59.032 80.34 59.724-36.158 28.338-81.698 40.99-127.322 35.614 38.056 24.4 83.264 38.64 131.83 38.64 159.668 0 249.878-134.866 244.444-255.822 16.804-12.126 31.384-27.274 42.916-44.52z"></path>
			</symbol>
			<symbol id="twitter-circle" viewBox="0 0 1024 1024">
				<title>twitter-circle</title>
				<path class="path1" d="M512 0c-282.624 0-512 229.376-512 512s229.376 512 512 512 512-229.376 512-512-229.376-512-512-512zM769.024 423.936c7.168 166.912-116.736 353.28-337.92 353.28-66.56 0-129.024-19.456-182.272-53.248 63.488 7.168 125.952-10.24 176.128-49.152-52.224-1.024-96.256-34.816-110.592-82.944 18.432 3.072 36.864 2.048 53.248-2.048-57.344-11.264-96.256-62.464-95.232-117.76 16.384 9.216 34.816 14.336 54.272 15.36-53.248-35.84-67.584-105.472-36.864-158.72 58.368 71.68 146.432 118.784 244.736 123.904-17.408-74.752 38.912-145.408 115.712-145.408 33.792 0 64.512 14.336 87.040 37.888 26.624-5.12 52.224-15.36 75.776-28.672-9.216 27.648-27.648 51.2-52.224 65.536 23.552-3.072 47.104-9.216 68.608-18.432-16.384 22.528-36.864 44.032-60.416 60.416z"></path>
			</symbol>
			<symbol id="twitter-simple" viewBox="0 0 1024 1024">
				<title>twitter-simple</title>
				<path class="path1" d="M972.8 226.304c-33.792 15.36-70.656 25.6-108.544 29.696 38.912-23.552 68.608-60.416 82.944-104.448-36.864 21.504-76.8 37.888-119.808 46.080-34.816-36.864-83.968-59.392-138.24-59.392-121.856 0-211.968 113.664-184.32 232.448-156.672-9.216-295.936-83.968-389.12-198.656-50.176 84.992-25.6 196.608 58.368 252.928-30.72-1.024-60.416-9.216-86.016-23.552-2.048 88.064 60.416 169.984 151.552 187.392-26.624 7.168-55.296 9.216-84.992 3.072 23.552 74.752 94.208 130.048 176.128 131.072-79.872 62.464-179.2 90.112-279.552 77.824 83.968 53.248 183.296 84.992 289.792 84.992 351.232 0 548.864-296.96 537.6-562.176 36.864-26.624 68.608-59.392 94.208-97.28z"></path>
			</symbol>
			<symbol id="twitter-square" viewBox="0 0 1024 1024">
				<title>twitter-square</title>
				<path class="path1" d="M0 0v1024h1024v-1024h-1024zM797.696 390.144c9.216 196.608-137.216 415.744-397.312 415.744-78.848 0-152.576-23.552-214.016-62.464 73.728 9.216 148.48-12.288 206.848-58.368-61.44-1.024-112.64-41.984-130.048-97.28 21.504 4.096 43.008 3.072 63.488-2.048-67.584-13.312-113.664-73.728-111.616-138.24 18.432 10.24 39.936 16.384 63.488 17.408-62.464-41.984-79.872-123.904-43.008-186.368 68.608 84.992 172.032 140.288 287.744 146.432-20.48-87.040 46.080-172.032 136.192-172.032 39.936 0 76.8 17.408 102.4 44.032 31.744-6.144 61.44-17.408 89.088-33.792-10.24 32.768-32.768 60.416-61.44 76.8 28.672-3.072 55.296-11.264 79.872-21.504-20.48 27.648-44.032 52.224-71.68 71.68z"></path>
			</symbol>
			<symbol id="youtube-circle-punched" viewBox="0 0 1024 1024">
				<title>youtube-circle-punched</title>
				<path class="path1" d="M512 100c-227.542 0-412 184.458-412 412s184.458 412 412 412c227.54 0 412-184.458 412-412s-184.46-412-412-412zM512 844c-183.488 0-332-148.488-332-332 0-183.486 148.488-332 332-332 183.476 0 332 148.488 332 332 0 183.478-148.49 332-332 332zM378.906 283.374h26.49l18.136 68.062 16.852-68.062h26.722l-30.608 101.214v69.064h-26.304v-69.064l-31.288-101.214zM465.916 422.324c0 22.136 11.568 33.66 34.218 33.66 18.782 0 33.574-12.56 33.574-33.66v-61.572c0-19.66-14.642-33.746-33.574-33.746-20.568 0-34.218 13.592-34.218 33.746v61.572zM489.95 362.826c0-6.876 3.166-11.978 9.726-11.978 7.162 0 10.226 4.95 10.226 11.978v58.428c0 6.838-3.486 11.892-9.768 11.892-6.452 0-10.186-5.276-10.186-11.892v-58.428zM596.84 328.042v95.344c-2.844 3.564-9.176 9.406-13.73 9.406-4.998 0-6.22-3.41-6.22-8.462v-96.29h-23.354v104.99c0 12.408 3.792 22.436 16.312 22.436 7.066 0 16.876-3.676 26.992-15.68v13.866h23.354v-125.61h-23.354zM562.488 585.54c1.586 2.094 2.376 5.156 2.376 9.192v61.77c0 3.81-0.642 6.558-1.926 8.242-2.452 3.21-7.76 3.066-11.378 1.232-1.702-0.858-3.456-2.26-5.268-4.208v-74.548c1.512-1.642 3.040-2.86 4.588-3.646 3.894-1.968 8.918-1.586 11.608 1.966zM637.36 582.828c-8.242 0-9.936 5.8-9.936 14.022v12.112h19.65v-12.112c0-8.084-1.714-14.022-9.714-14.022zM705.192 671.076c0 29.576-23.976 53.55-53.55 53.55h-275.282c-29.574 0-53.548-23.974-53.548-53.55v-135.284c0-29.578 23.974-53.552 53.548-53.552h275.28c29.574 0 53.55 23.974 53.55 53.552v135.284zM413.042 545.906h25.914v-23.54h-76.874v23.54h25.91v138.63h25.048v-138.63zM502.136 564.91h-22.242v90.804c-2.712 3.396-8.74 8.958-13.076 8.958-4.758 0-5.924-3.246-5.924-8.060v-91.702h-22.244v99.988c0 24.274 16.458 24.42 28.45 17.55 4.434-2.542 8.696-6.25 12.794-11.12v13.208h22.242v-119.626zM587.756 593.386c0-16.226-5.392-29.988-21.684-29.988-7.946 0-14.758 5.062-19.78 11.178v-52.208h-22.456v162.17h22.456v-9.196c6.202 7.732 12.984 10.708 21.128 10.708 14.796 0 20.334-11.498 20.334-26.296v-66.368zM669.964 597.070c0-21.622-10.31-35.184-31.648-35.184-20.064 0-33.784 14.416-33.784 35.184v53.696c0 21.54 10.862 37.012 32.098 37.012 23.44 0 33.334-13.96 33.334-37.012v-8.986h-22.89v8.316c0 10.416-0.548 16.734-9.938 16.734-8.954 0-9.712-7.762-9.712-16.734v-22.566h42.542v-30.46z"></path>
			</symbol>
			<symbol id="youtube-circle" viewBox="0 0 1024 1024">
				<title>youtube-circle</title>
				<path class="path1" d="M590.848 588.8c-11.264 0-21.504 7.168-28.672 16.384v-76.8h-32.768v237.568h32.768v-13.312c9.216 11.264 19.456 15.36 30.72 15.36 21.504 0 29.696-16.384 29.696-38.912v-97.28c0-22.528-8.192-43.008-31.744-43.008zM588.8 724.992c0 5.12-1.024 9.216-3.072 12.288-3.072 5.12-11.264 4.096-16.384 2.048-2.048-1.024-5.12-3.072-8.192-6.144v-109.568c2.048-2.048 4.096-4.096 7.168-5.12 6.144-3.072 13.312-2.048 17.408 3.072 2.048 3.072 3.072 7.168 3.072 13.312v90.112zM479.232 380.928v-84.992c0-10.24 5.12-17.408 14.336-17.408 10.24 0 15.36 7.168 15.36 17.408v84.992c0 10.24-5.12 17.408-14.336 17.408-10.24 0-15.36-7.168-15.36-17.408zM464.896 590.848h32.768v175.104h-32.768v-19.456c-6.144 7.168-12.288 12.288-18.432 16.384-17.408 10.24-41.984 10.24-41.984-25.6v-146.432h32.768v134.144c0 7.168 2.048 12.288 8.192 12.288s15.36-8.192 19.456-13.312v-133.12zM404.48 563.2h-37.888v202.752h-36.864v-202.752h-37.888v-34.816h112.64v34.816zM696.32 586.752c-29.696 0-49.152 21.504-49.152 51.2v78.848c0 31.744 16.384 54.272 47.104 54.272 33.792 0 49.152-20.48 49.152-54.272v-13.312h-33.792v12.288c0 15.36-1.024 24.576-14.336 24.576s-14.336-11.264-14.336-24.576v-32.768h62.464v-44.032c-1.024-32.768-16.384-52.224-47.104-52.224zM708.608 655.36h-28.672v-17.408c0-12.288 2.048-20.48 14.336-20.48 11.264 0 14.336 8.192 14.336 20.48v17.408zM512 0c-282.624 0-512 229.376-512 512s229.376 512 512 512c282.624 0 512-229.376 512-512s-229.376-512-512-512zM572.416 244.736h33.792v140.288c0 7.168 2.048 12.288 9.216 12.288s16.384-8.192 20.48-13.312v-139.264h33.792v183.296h-33.792v-20.48c-14.336 17.408-28.672 22.528-39.936 22.528-18.432 0-23.552-14.336-23.552-32.768v-152.576zM494.592 243.712c27.648 0 49.152 20.48 49.152 49.152v90.112c0 30.72-21.504 49.152-49.152 49.152-32.768 0-50.176-16.384-50.176-49.152v-90.112c0-29.696 19.456-49.152 50.176-49.152zM355.328 179.2l26.624 99.328 24.576-99.328h38.912l-44.032 148.48v101.376h-38.912v-101.376l-45.056-148.48h37.888zM793.6 746.496c0 43.008-34.816 77.824-77.824 77.824h-402.432c-43.008 0-77.824-34.816-77.824-77.824v-197.632c0-43.008 34.816-77.824 77.824-77.824h402.432c43.008 0 77.824 34.816 77.824 77.824v197.632z"></path>
			</symbol>
			<symbol id="youtube-simple" viewBox="0 0 1024 1024">
				<title>youtube-simple</title>
				<path class="path1" d="M229.376 51.2h55.296l37.888 142.336 35.84-142.336h56.32l-63.488 210.944v144.384h-55.296v-144.384l-66.56-210.944zM411.648 340.992c0 46.080 24.576 70.656 71.68 70.656 38.912 0 69.632-26.624 69.632-70.656v-128c0-40.96-30.72-70.656-69.632-70.656-43.008 0-71.68 28.672-71.68 70.656v128zM461.824 217.088c0-14.336 6.144-24.576 20.48-24.576 15.36 0 21.504 10.24 21.504 24.576v121.856c0 14.336-7.168 24.576-20.48 24.576s-21.504-11.264-21.504-24.576v-121.856zM685.056 144.384v198.656c-6.144 7.168-19.456 19.456-28.672 19.456-10.24 0-13.312-7.168-13.312-17.408v-200.704h-49.152v219.136c0 25.6 8.192 47.104 33.792 47.104 14.336 0 34.816-7.168 56.32-32.768v28.672h49.152v-262.144h-48.128zM613.376 681.984c3.072 4.096 5.12 11.264 5.12 19.456v129.024c0 8.192-1.024 13.312-4.096 17.408-5.12 7.168-16.384 6.144-23.552 3.072-3.072-2.048-7.168-5.12-11.264-9.216v-155.648c3.072-3.072 6.144-6.144 9.216-7.168 8.192-5.12 18.432-4.096 24.576 3.072zM770.048 676.864c-17.408 0-20.48 12.288-20.48 29.696v25.6h40.96v-25.6c-1.024-17.408-4.096-29.696-20.48-29.696zM911.36 861.184c0 61.44-50.176 111.616-111.616 111.616h-575.488c-61.44 0-111.616-50.176-111.616-111.616v-282.624c0-61.44 50.176-111.616 111.616-111.616h574.464c61.44 0 111.616 50.176 111.616 111.616l1.024 282.624zM301.056 599.040h54.272v-49.152h-160.768v49.152h54.272v289.792h52.224v-289.792zM487.424 638.976h-47.104v189.44c-6.144 7.168-18.432 18.432-27.648 18.432-10.24 0-12.288-7.168-12.288-16.384v-191.488h-46.080v208.896c0 51.2 34.816 51.2 59.392 36.864 9.216-5.12 18.432-13.312 26.624-23.552v27.648h46.080v-249.856zM665.6 698.368c0-33.792-11.264-62.464-45.056-62.464-16.384 0-30.72 10.24-40.96 23.552v-109.568h-47.104v338.944h47.104v-19.456c13.312 16.384 26.624 22.528 44.032 22.528 30.72 0 41.984-23.552 41.984-55.296v-138.24zM837.632 706.56c0-45.056-21.504-73.728-66.56-73.728-41.984 0-70.656 29.696-70.656 73.728v112.64c0 45.056 22.528 76.8 66.56 76.8 49.152 0 69.632-28.672 69.632-76.8v-18.432h-48.128v17.408c0 21.504-1.024 34.816-20.48 34.816-18.432 0-20.48-16.384-20.48-34.816v-47.104h89.088l1.024-64.512z"></path>
			</symbol>
			<symbol id="youtube-square" viewBox="0 0 1024 1024">
				<title>youtube-square</title>
				<path class="path1" d="M596.992 608.256c-13.312 0-23.552 8.192-31.744 18.432v-84.992h-36.864v263.168h36.864v-15.36c10.24 12.288 21.504 17.408 34.816 17.408 23.552 0 32.768-18.432 32.768-43.008v-106.496c-1.024-26.624-10.24-49.152-35.84-49.152zM594.944 759.808c0 6.144-1.024 10.24-3.072 13.312-4.096 5.12-13.312 5.12-18.432 2.048-3.072-1.024-5.12-4.096-8.192-7.168v-120.832c2.048-3.072 5.12-5.12 7.168-6.144 6.144-3.072 14.336-3.072 18.432 3.072 3.072 3.072 4.096 8.192 4.096 15.36v100.352zM456.704 611.328h35.84v194.56h-35.84v-21.504c-7.168 8.192-13.312 14.336-20.48 18.432-19.456 11.264-46.080 11.264-46.080-28.672v-162.816h35.84v148.48c0 8.192 2.048 13.312 9.216 13.312s16.384-9.216 21.504-14.336v-147.456zM390.144 579.584h-41.984v225.28h-40.96v-225.28h-41.984v-37.888h124.928v37.888zM473.088 377.856v-95.232c0-11.264 5.12-19.456 15.36-19.456 11.264 0 16.384 8.192 16.384 19.456v95.232c0 11.264-6.144 19.456-15.36 19.456-10.24 0-16.384-9.216-16.384-19.456zM0 0v1024h1024v-1024h-1024zM576.512 226.304h37.888v156.672c0 8.192 2.048 13.312 10.24 13.312 7.168 0 17.408-9.216 22.528-15.36v-154.624h37.888v203.776h-37.888v-22.528c-16.384 19.456-32.768 25.6-44.032 25.6-20.48 0-26.624-16.384-26.624-36.864v-169.984zM489.472 224.256c30.72 0 54.272 22.528 54.272 55.296v99.328c0 33.792-23.552 54.272-54.272 54.272-36.864 0-55.296-18.432-55.296-54.272v-100.352c0-31.744 21.504-54.272 55.296-54.272zM335.872 153.6l29.696 110.592 26.624-110.592h43.008l-50.176 164.864v112.64h-43.008v-112.64l-51.2-164.864h45.056zM822.272 783.36c0 48.128-38.912 87.040-87.040 87.040h-446.464c-48.128 0-87.040-38.912-87.040-87.040v-220.16c0-48.128 38.912-87.040 87.040-87.040h447.488c48.128 0 87.040 38.912 87.040 87.040v220.16zM713.728 606.208c-32.768 0-55.296 23.552-55.296 57.344v87.040c0 34.816 17.408 60.416 52.224 60.416 37.888 0 54.272-22.528 54.272-60.416v-14.336h-36.864v13.312c0 17.408-1.024 27.648-16.384 27.648-14.336 0-15.36-12.288-15.36-27.648v-36.864h68.608v-49.152c0-35.84-16.384-57.344-51.2-57.344zM728.064 683.008h-31.744v-19.456c0-13.312 3.072-22.528 16.384-22.528s15.36 9.216 15.36 22.528v19.456z"></path>
			</symbol>
			<symbol id="blogger-square" viewBox="0 0 1024 1024">
				<title>blogger-square</title>
				<path class="path1" d="M642.282 605.278c0 17.078-13.844 30.922-30.918 30.922h-188.76c-17.076 0-30.916-13.844-30.916-30.922 0-17.070 13.84-30.914 30.916-30.914h188.76c17.074 0 30.918 13.844 30.918 30.914zM422.604 447.502h94.342c17.074 0 30.916-13.842 30.916-30.916 0-17.076-13.842-30.918-30.916-30.918h-94.342c-17.076 0-30.916 13.842-30.916 30.918 0 17.074 13.84 30.916 30.916 30.916zM924.946 100v824h-824v-824h824zM775.996 473.62c0-14.13-11.454-25.586-25.582-25.586h-42.11c-14.128 0-25.584-11.456-25.584-25.586v-11.194c0-87.138-70.638-157.776-157.782-157.776h-109.268c-87.14 0-157.78 70.638-157.78 157.776v201.488c0 87.136 70.638 157.78 157.78 157.78h202.546c87.142 0 157.778-70.642 157.778-157.78v-139.122z"></path>
			</symbol>
			<symbol id="blogger-circle" viewBox="0 0 1024 1024">
				<title>blogger-circle</title>
				<path class="path1" d="M410.366 430.9c0-14.514 11.764-26.28 26.282-26.28h80.188c14.514 0 26.282 11.766 26.282 26.28 0 14.512-11.768 26.278-26.282 26.278h-80.188c-14.52 0-26.282-11.766-26.282-26.278zM597.090 565.008h-160.444c-14.518 0-26.282 11.77-26.282 26.278 0 14.518 11.764 26.286 26.282 26.286h160.444c14.514 0 26.282-11.768 26.282-26.286 0-14.508-11.768-26.278-26.282-26.278zM924.834 512c0 227.542-184.458 412-412 412s-412-184.458-412-412 184.458-412 412-412 412 184.458 412 412zM737.028 479.376c0-12.010-9.734-21.748-21.744-21.748h-35.792c-12.010 0-21.744-9.738-21.744-21.748v-9.514c0-74.068-60.044-134.11-134.116-134.11h-92.878c-74.068 0-134.112 60.042-134.112 134.11v171.264c0 74.066 60.042 134.112 134.112 134.112h172.166c74.072 0 134.11-60.044 134.11-134.112v-118.254z"></path>
			</symbol>
			<symbol id="blogger-circle-punched" viewBox="0 0 1024 1024">
				<title>blogger-circle-punched</title>
				<path class="path1" d="M512.834 180c88.68 0 172.052 34.534 234.76 97.24 62.708 62.708 97.24 146.080 97.24 234.76s-34.534 172.052-97.24 234.76c-62.708 62.706-146.080 97.24-234.76 97.24s-172.052-34.536-234.76-97.24c-62.708-62.708-97.24-146.080-97.24-234.76s34.534-172.052 97.24-234.76c62.708-62.706 146.080-97.24 234.76-97.24zM512.834 100c-227.542 0-412 184.458-412 412s184.458 412 412 412 412-184.458 412-412-184.458-412-412-412v0zM695.952 463.474h-31.948c-10.716 0-19.406-8.692-19.406-19.412v-8.49c0-66.106-53.588-119.694-119.698-119.694h-82.892c-66.108 0-119.696 53.588-119.696 119.694v152.852c0 66.106 53.588 119.696 119.696 119.696h153.656c66.11 0 119.694-53.59 119.694-119.696v-105.542c0-10.718-8.688-19.408-19.406-19.408zM447.268 416.162h71.566c12.956 0 23.458 10.502 23.458 23.456 0 12.952-10.502 23.454-23.458 23.454h-71.566c-12.958 0-23.458-10.502-23.458-23.454 0-12.954 10.5-23.456 23.458-23.456zM590.462 606.22h-143.196c-12.958 0-23.458-10.502-23.458-23.458 0-12.95 10.5-23.454 23.458-23.454h143.196c12.954 0 23.456 10.504 23.456 23.454 0 12.956-10.502 23.458-23.456 23.458z"></path>
			</symbol>
			<symbol id="blogger-simple" viewBox="0 0 1024 1024">
				<title>blogger-simple</title>
				<path class="path1" d="M882.586 410.466h-66.84c-22.428 0-40.61-18.184-40.61-40.614v-17.766c0-138.314-112.124-250.438-250.446-250.438h-173.446c-138.316 0-250.442 112.124-250.442 250.438v319.822c0 138.312 112.126 250.444 250.442 250.444h321.506c138.32 0 250.444-112.13 250.444-250.444v-220.83c0.002-22.428-18.182-40.612-40.608-40.612zM362.25 311.474h149.75c27.104 0 49.072 21.972 49.072 49.076 0 27.102-21.968 49.074-49.072 49.074h-149.75c-27.102 0-49.074-21.972-49.074-49.074-0.002-27.102 21.97-49.076 49.074-49.076zM661.872 709.14h-299.622c-27.102 0-49.074-21.972-49.074-49.082 0-27.096 21.972-49.068 49.074-49.068h299.622c27.102 0 49.074 21.972 49.074 49.068 0 27.11-21.974 49.082-49.074 49.082z"></path>
			</symbol>
			<symbol id="icon-search" viewBox="0 0 1024 1024">
				<title>icon-search</title>
				<path class="path1" d="M994.743 855.771l-212.114-212.114c43.886-65.829 65.829-138.971 65.829-226.743 0-226.743-190.171-416.914-424.229-416.914s-424.229 190.171-424.229 416.914c0 234.057 190.171 416.914 424.229 416.914 80.457 0 153.6-21.943 219.429-58.514l219.429 212.114c80.457 95.086 219.429-36.571 131.657-131.657zM424.229 709.486c-160.914 0-292.571-131.657-292.571-292.571s131.657-292.571 292.571-292.571 292.571 131.657 292.571 292.571-131.657 292.571-292.571 292.571z"></path>
			</symbol>
			<symbol id="icon-close" viewBox="0 0 1024 1024">
				<title>close</title>
				<path class="path1" d="M734.669 673.382l-141.21-161.382 141.21-161.382c24.013-24.013 24.013-62.925 0-86.886-24.013-23.962-62.925-23.962-86.886 0l-135.782 155.187-135.731-155.136c-24.013-24.013-62.925-24.013-86.886 0-23.962 24.013-23.962 62.925 0 86.886l141.158 161.331-141.21 161.382c-23.962 24.013-23.962 62.822 0 86.784 24.013 24.013 62.925 24.013 86.886 0l135.782-155.085 135.731 155.085c24.013 24.013 62.925 24.013 86.886 0s24.013-62.771 0.051-86.784z"></path>
			</symbol>
			<symbol id="icon-cart" viewBox="0 0 1103 1024">
				<title>icon-cart</title>
				<path class="path1" d="M1071.262 204.8h-803.446c-15.754 0-39.385-15.754-39.385-31.508l-23.631-141.785c-7.877-15.754-23.631-31.508-47.262-31.508h-126.031c-23.631 0-31.508 15.754-31.508 31.508l7.877 39.385c0 15.754 23.631 31.508 39.385 31.508h23.631c15.754 0 39.385 15.754 39.385 31.508l133.908 764.062c0 15.754 23.631 31.508 39.385 31.508h39.385c0 0 0 7.877 0 7.877 0 39.385 31.508 70.892 70.892 70.892s70.892-31.508 70.892-70.892c0 0 0-7.877 0-7.877h259.938c0 0 0 7.877 0 7.877 0 39.385 31.508 70.892 70.892 70.892s70.892-31.508 70.892-70.892c0 0 0-7.877 0-7.877h47.262c15.754 0 39.385-15.754 39.385-31.508l7.877-39.385c0-15.754-7.877-31.508-31.508-31.508h-551.385c-15.754 0-39.385-15.754-39.385-31.508v-15.754c0-15.754 7.877-31.508 31.508-31.508h606.523c15.754 0 39.385-15.754 39.385-31.508l86.646-472.615c0-23.631-7.877-39.385-31.508-39.385z"></path>
			</symbol>
		</defs>
	</svg>
