<svg id="responsive-design-icon" xmlns="http://www.w3.org/2000/svg" viewBox="0 0 420.03 335.91">
    <path d="M283.47,354v-61.1H440.88v-6q0-79.72,0-159.46c0-10.31-3.92-14.28-14.09-14.29H181.85c-10.11,0-14,3.81-14,13.78,0,2.13,0,4.26,0,6.71H143.31c-4.55-25.24,12.07-45.6,37.26-45.61Q304.78,88,429,88.07c21.14,0,37,15.81,37,37q.09,95.24,0,190.46c0,23.34-15.14,38.43-38.51,38.46q-70,.09-140,0Z" transform="translate(-46 -88.04)"/>
    <path d="M176,385.34V375.8h77.9V192.2H96.27v19.2H77V179.76c0-5,0-10,0-15,.06-12.64,8.25-21,21-21,26.66-.09,53.32,0,80,0q36.74,0,73.48,0c14.29,0,22.31,8,22.31,22.24q0,118,0,235.93c0,13.8-8.32,22-22.16,22h-82.2A12.58,12.58,0,0,0,176,412.82" transform="translate(-46 -88.04)"/>
    <path d="M166,322.51q0,42.24,0,84.46c0,11.34-5.55,16.95-16.78,17q-43.23,0-86.46,0c-11.21,0-16.7-5.62-16.71-17q0-84.71,0-169.41c0-10.26,5.78-16.24,16-16.26q43.73-.1,87.46,0c10.92,0,16.49,5.77,16.49,16.8Q166,280.28,166,322.51Zm-14.34,66.35V256.57H60.33V388.86ZM116.1,406.78a10.44,10.44,0,0,0-10.37-10.54A10.76,10.76,0,0,0,95.2,406.78,10.55,10.55,0,0,0,106,417,10.23,10.23,0,0,0,116.1,406.78Zm.24-171.06H95.42l.32,5.75h20.6Z" transform="translate(-46 -88.04)"/>
    <path d="M283.24,365.35H334c.3,5.95.2,11.92,1,17.75a48.78,48.78,0,0,0,3.87,13.81c4.41,9.37,12.92,12.29,22.61,12.92,2.61.17,5.56.24,7.69,1.49a8.17,8.17,0,0,1,3.67,5.74c.07,1.75-1.93,4.14-3.65,5.24a13.08,13.08,0,0,1-6.67,1.57c-28,.1-56,.06-84,.06-.6,0-1.21-.11-2.89-.26,8.54-9.25,7.61-20,7.54-30.67C283.19,383.88,283.24,374.76,283.24,365.35Z" transform="translate(-46 -88.04)"/>
    <circle cx="128.78" cy="80.75" r="6.24" style="fill:#fff"/>
</svg>
